STARTFONT 2.3
FONT -FontForge-Fontdiner Swanky-Book-R-Normal--28-280-72-72-P-177-ISO10646-1
SIZE 28 72 72  2
FONTBOUNDINGBOX 40 43 -7 -14
COMMENT "Generated by fontforge, http://fontforge.sourceforge.net"
COMMENT "Copyright (c) 2010 by Font Diner, Inc. All rights reserved."
STARTPROPERTIES 40
FOUNDRY "FontForge"
FAMILY_NAME "Fontdiner Swanky"
WEIGHT_NAME "Book"
SLANT "R"
SETWIDTH_NAME "Normal"
ADD_STYLE_NAME ""
PIXEL_SIZE 28
POINT_SIZE 280
RESOLUTION_X 72
RESOLUTION_Y 72
SPACING "P"
AVERAGE_WIDTH 177
CHARSET_REGISTRY "ISO10646"
CHARSET_ENCODING "1"
FONTNAME_REGISTRY ""
CHARSET_COLLECTIONS "ISO10646-1"
BITS_PER_PIXEL 2
FONT_NAME "FontdinerSwanky-Regular"
FACE_NAME "Fontdiner Swanky Regular"
COPYRIGHT "Copyright (c) 2010 by Font Diner, Inc. All rights reserved."
FONT_VERSION "1.001"
FONT_ASCENT 22
FONT_DESCENT 6
UNDERLINE_POSITION -3
UNDERLINE_THICKNESS 2
X_HEIGHT 15
CAP_HEIGHT 17
RAW_ASCENT 799
RAW_DESCENT 200
NORM_SPACE 9
RELATIVE_WEIGHT 40
RELATIVE_SETWIDTH 50
SUPERSCRIPT_X 0
SUPERSCRIPT_Y 13
SUPERSCRIPT_SIZE 17
SUBSCRIPT_X 0
SUBSCRIPT_Y 3
SUBSCRIPT_SIZE 17
AVG_LOWERCASE_WIDTH 177
AVG_UPPERCASE_WIDTH 216
ENDPROPERTIES
CHARS 231
STARTCHAR space
ENCODING 32
SWIDTH 320 0
DWIDTH 9 0
BBX 1 1 0 0
BITMAP
00
ENDCHAR
STARTCHAR exclam
ENCODING 33
SWIDTH 305 0
DWIDTH 9 0
BBX 9 25 0 -1
BITMAP
069500
07FF40
07FF40
07FF00
07FF00
0BFE00
0BFE00
0BFD00
0BFC00
0BFC00
0BF800
0BF800
0BF400
0BF400
0FF000
0FF000
0FE000
0FD000
0AD000
000000
2F8000
BFD000
BFE000
3FD000
050000
ENDCHAR
STARTCHAR quotedbl
ENCODING 34
SWIDTH 369 0
DWIDTH 10 0
BBX 10 8 0 11
BITMAP
6A5AA0
BF9FF0
BF9FF0
7F4FE0
7F4FE0
7F4FE0
7F0FE0
2F0BD0
ENDCHAR
STARTCHAR numbersign
ENCODING 35
SWIDTH 702 0
DWIDTH 20 0
BBX 20 19 0 0
BITMAP
003F407E00
007F407D00
007F40BD00
15BF55BD00
3FFFFFFFFD
3FFFFFFFFC
7FFFFFFFF8
00BE00FC00
00BE01FC00
00BE01FC00
00BD01FC00
6AFFBFFFF8
BFFFFFFFF4
FFFFFFFFF4
55FD57FEA4
00FC03F800
00F803F800
01F803F800
0050010000
ENDCHAR
STARTCHAR dollar
ENCODING 36
SWIDTH 545 0
DWIDTH 15 0
BBX 15 25 0 -4
BITMAP
00154000
003F8000
003F8000
002F8000
01BF9020
0BFFFD30
2FEAFFB0
7F401FF0
BF4003F0
BFD000F0
7FFE4020
2FFFF410
0BFFFF80
01FFFFE0
201BFFF8
38007FFC
7E000BFC
7F8007F8
7FFAAFF4
7AFFFFD0
A06FE900
400FD000
000FD000
001FD000
00055000
ENDCHAR
STARTCHAR percent
ENCODING 37
SWIDTH 657 0
DWIDTH 18 0
BBX 19 23 0 -1
BITMAP
000000A400
015000FF00
2FFD01FE00
7FBF43FC00
BD1F87F800
BD1F8BF400
7E6F4FF000
3FFE1FD000
0BF83FC000
00007F8000
0000BF0000
0000FE0000
0001FD0000
0003F80000
0007F40500
000BF0BFD0
000FD3FFF4
002FC7E1FC
003F87E0FC
007F47E1F8
00BE02FFF4
00FD00BFD0
00BC000500
ENDCHAR
STARTCHAR ampersand
ENCODING 38
SWIDTH 668 0
DWIDTH 19 0
BBX 21 24 1 -3
BITMAP
006FA0000000
07FFFD000000
1FE0BF000000
2FC07F400000
2FC03F400000
2FD03F400000
1FF47E000000
0BFDFC000000
03FFF4000000
01FFC0100000
01FFD0200000
0BFFF4280000
2FDFFC1E0000
7F47FE1F4000
BF01FFAFC000
FF00BFFD6000
FF803FF40540
FFE42FFEBE00
BFFFFFFFF400
2FFFFAFF8000
06FE41FD0000
000003E00000
00000B400000
000018000000
ENDCHAR
STARTCHAR quotesingle
ENCODING 39
SWIDTH 177 0
DWIDTH 5 0
BBX 5 8 0 11
BITMAP
6A40
BF80
BF40
7F40
7F40
7F40
7F00
2A00
ENDCHAR
STARTCHAR parenleft
ENCODING 40
SWIDTH 384 0
DWIDTH 11 0
BBX 10 28 1 -4
BITMAP
000010
0006C0
002F40
00FD00
03F800
0BF400
1FE000
2FD000
3FC000
7FC000
7F8000
7F8000
BF8000
BF8000
BF8000
BF8000
7F8000
7FC000
3FC000
3FD000
2FE000
1FF000
0BF800
03FC00
01FE00
003F40
000BC0
0000A0
ENDCHAR
STARTCHAR parenright
ENCODING 41
SWIDTH 375 0
DWIDTH 11 0
BBX 10 28 0 -4
BITMAP
400000
780000
1F4000
0BE000
03F800
01FD00
00FF00
00BF40
007F80
003FC0
003FC0
002FD0
002FD0
002FD0
002FD0
002FD0
003FD0
003FC0
007FC0
00BF80
00FF40
01FF00
02FD00
07F800
0BE000
1F8000
3D0000
900000
ENDCHAR
STARTCHAR asterisk
ENCODING 42
SWIDTH 640 0
DWIDTH 18 0
BBX 18 18 0 0
BITMAP
0024050000
06F80B8000
03FD0FF400
01FE1FF800
00BF2FF000
003FBFD000
691FFF4000
7FFFFFAFF0
BFFFFFFFE0
BFFFFFFFE0
BFAFFF5A90
502FFF4000
007F7FD000
00FF2FF400
02FD1FFC00
03FC0FE000
00B40A0000
0010000000
ENDCHAR
STARTCHAR plus
ENCODING 43
SWIDTH 607 0
DWIDTH 17 0
BBX 17 17 0 1
BITMAP
0005540000
000BF80000
000BF80000
000BF80000
000BF80000
000BF80000
BAAFF95500
BFFFFFFF80
BFFFFFFF80
BFFFFFFF80
6AABF95500
000BF40000
0007F40000
0007F40000
0007F40000
0007F40000
0006F00000
ENDCHAR
STARTCHAR comma
ENCODING 44
SWIDTH 226 0
DWIDTH 6 0
BBX 6 8 0 -6
BITMAP
2F80
7FE0
BFF0
7FF0
1BE0
0BC0
0F40
1400
ENDCHAR
STARTCHAR hyphen
ENCODING 45
SWIDTH 549 0
DWIDTH 15 0
BBX 13 5 1 7
BITMAP
7FFEAA40
7FFFFF80
7FFFFF80
7FFFFF80
6AA95500
ENDCHAR
STARTCHAR period
ENCODING 46
SWIDTH 226 0
DWIDTH 6 0
BBX 6 6 0 -3
BITMAP
0500
2FD0
BFF0
BFF0
7FD0
0540
ENDCHAR
STARTCHAR slash
ENCODING 47
SWIDTH 600 0
DWIDTH 17 0
BBX 19 27 -1 -2
BITMAP
0000000400
0000001F40
0000002FE4
0000007FF4
000000FFE0
000002FFC0
000003FF40
00000BFF00
00001FFD00
00002FF800
00007FF000
0000FFD000
0002FF8000
0007FF0000
000BFE0000
001FFC0000
003FF40000
007FE00000
00FFC00000
02FF400000
07FE000000
0BFD000000
1FF8000000
3FF0000000
BFD0000000
7F80000000
0700000000
ENDCHAR
STARTCHAR zero
ENCODING 48
SWIDTH 740 0
DWIDTH 21 0
BBX 20 18 0 0
BITMAP
0001AA9000
006FFFFE00
02FFFFFFD0
0BFF907FF4
1FFD001FFC
2FF40007FD
3FE00003FE
7FD00002FF
7FD00002FF
7FD00002FF
7FD00002FF
3FE00003FE
2FF00007FD
1FF8000FFC
0BFE007FF4
02FFEBFFD0
007FFFFE00
0006BF9000
ENDCHAR
STARTCHAR one
ENCODING 49
SWIDTH 503 0
DWIDTH 14 0
BBX 17 22 -2 -1
BITMAP
0000010000
0001AF4000
05BFFF4000
6BFFFF4000
005BFF4000
0002FF4000
0002FF4000
0002FF0000
0002FF0000
0002FF0000
0002FF0000
0002FF0000
0001FF0000
0001FF0000
0001FF0000
0001FF0000
0001FF0000
0001FF0000
0001FE0000
0007FF9000
00BFFFF900
06AAAABF80
ENDCHAR
STARTCHAR two
ENCODING 50
SWIDTH 638 0
DWIDTH 18 0
BBX 18 23 -1 -1
BITMAP
0400000000
0C00000000
0E01BFE400
0B5FFFFE00
0BFFFBFF80
07FE40BFD0
07F8002FE0
07F0001FF0
03D0001FF0
0380002FF0
0240003FE0
020001FFC0
01000BFE10
0001BFF420
000BFF8060
002FF400E0
01FF8001E0
07FE0003E0
0FFC0007D0
2FFEAFFFD0
3FFFFFFFD0
7FFFFFFFD0
1556AAABD0
ENDCHAR
STARTCHAR three
ENCODING 51
SWIDTH 620 0
DWIDTH 17 0
BBX 18 24 -1 -3
BITMAP
2000000000
2801A94000
1D2FFFE400
0FBFFFFD00
0FFE57FF40
0BF000FFC0
0BC0007FC0
0740003FD0
0300007FC0
010000FF80
00029BFF40
0007FFFE00
0007FFFF80
01015BFFD0
060001FFE0
070000BFE0
0B40007FE0
0FD000BFE0
1FF402FFC0
1FFFAFFF40
2D7FFFFD00
340BFF9000
6000100000
4000000000
ENDCHAR
STARTCHAR four
ENCODING 52
SWIDTH 606 0
DWIDTH 17 0
BBX 18 24 -1 -2
BITMAP
0000001000
0000003000
000000B000
000002F000
00000BF000
00001FF000
00007FF000
0000FFE000
0002FFE000
000BFFE000
002FEFE000
007F6FE050
01FE2FE090
03F82FE1D0
0FE02FE3D0
2FFFFFFFD0
BFFFFFFFC0
55556FE6C0
00001FE1C0
00001FD0C0
00001FD080
00002FE000
0006FFFD00
006FFFFE80
ENDCHAR
STARTCHAR five
ENCODING 53
SWIDTH 610 0
DWIDTH 17 0
BBX 17 22 0 -1
BITMAP
0000005600
0015AFFE00
6BFFFFFE00
FFFFFFFE00
BFFA952D00
7F40001D00
7F80000D00
3F80000800
3FFFFE4400
2FFFFFE000
2FFAFFF800
1E402FFE00
180007FF00
000003FF00
100002FF40
240002FF00
2D0007FF00
3F801FFE00
3FFABFFC00
7FFFFFF400
74BFFFD000
501AF90000
ENDCHAR
STARTCHAR six
ENCODING 54
SWIDTH 619 0
DWIDTH 17 0
BBX 18 25 0 -2
BITMAP
0000000400
0000000800
0000001C00
0005502C00
002FFD7C00
01FFFFFD00
03FFFFFD00
0BFE46FD00
1FF8006E00
2FF4000A00
3FF6AA4200
7FFFFFF400
BFFFAFFE00
BFF802FF40
FFE000FF80
FFD0007FC0
FFC0007FD0
FFC0003FD0
BFC0003FC0
7FC0007FC0
3FD000BF80
2FF401FF00
0BFE5BFD00
02FFFFE400
002BFA4000
ENDCHAR
STARTCHAR seven
ENCODING 55
SWIDTH 598 0
DWIDTH 17 0
BBX 18 22 0 -2
BITMAP
FFEAAA5550
BFFFFFFFF0
7FFFFFFFE0
3F956BFFD0
2F4003FF80
1F0003FF40
0F0007FF00
0A000BFE00
05000FFC00
00000FF800
00001FF400
00002FF000
00003FE000
00003FC000
00007F8000
0000BF4000
0000FF0000
0000FE0000
0007FE0000
007FFFD000
06FFFFFD00
0001555540
ENDCHAR
STARTCHAR eight
ENCODING 56
SWIDTH 642 0
DWIDTH 18 0
BBX 18 23 0 -3
BITMAP
0006A90000
00BFFFE000
03FFAFFD00
0BFD02FF00
1FF401FF40
2FF000FF80
2FF000BF80
2FF000BF80
1FF401FF40
0FFD02FF00
03FFFFFD00
0BFFFFFE00
2FFFAFFF80
7FF801FFD0
BFE000BFF0
FFD0007FF0
FFD0007FF0
BFE0007FF0
7FF400FFE0
2FFD07FF80
0BFFFFFE00
01BFFFE400
0005A50000
ENDCHAR
STARTCHAR nine
ENCODING 57
SWIDTH 610 0
DWIDTH 17 0
BBX 17 24 0 -4
BITMAP
006FF90000
02FFFFD000
0FFE6FF800
2FF003FD00
7FD001FF00
BFC000FF40
FFC000FF80
FF8000BF80
FFC000FFC0
BFD001FFC0
7FF007FFC0
2FFEAFFF80
0BFFFFFF80
01FFFFFF40
141695FF00
1D0002FE00
1F400BFD00
0FF56FF800
0FFFFFF000
0FFFFFC000
0B5BFE0000
0A00400000
0500000000
0400000000
ENDCHAR
STARTCHAR colon
ENCODING 58
SWIDTH 223 0
DWIDTH 6 0
BBX 6 13 0 -3
BITMAP
0500
7FC0
FFE0
FFE0
7FC0
0500
0000
0500
7F80
FFE0
FFE0
7FD0
0500
ENDCHAR
STARTCHAR semicolon
ENCODING 59
SWIDTH 228 0
DWIDTH 6 0
BBX 6 16 0 -6
BITMAP
0500
7FD0
BFE0
BFE0
7FD0
0500
0000
0000
2F80
BFD0
FFE0
BFE0
1BD0
0F80
1E00
1400
ENDCHAR
STARTCHAR less
ENCODING 60
SWIDTH 563 0
DWIDTH 16 0
BBX 17 18 0 0
BITMAP
0000001E00
000001BF00
00000BFF00
00007FFF40
0006FFFF40
002FFFF800
01FFFF8000
1FFFF80000
BFFF800000
2FFE000000
06FF800000
007FE00000
000BFD0000
0001FF4000
00002FE000
000007F800
000000BD00
0000000900
ENDCHAR
STARTCHAR equal
ENCODING 61
SWIDTH 531 0
DWIDTH 15 0
BBX 15 11 0 2
BITMAP
FFAAA954
FFFFFFF8
FFFFFFF8
FFFFFFF4
AAA95550
00000000
AAABFFF8
FFFFFFF8
FFFFFFF8
FFFFFFF8
00555AA4
ENDCHAR
STARTCHAR greater
ENCODING 62
SWIDTH 576 0
DWIDTH 16 0
BBX 17 19 0 0
BITMAP
1000000000
3900000000
7F80000000
7FF4000000
BFFE400000
BFFFE00000
1BFFFD0000
01BFFFD000
001BFFF800
0001FFFF40
00003FFD00
0000BFE000
0007FF4000
001FF40000
00BF800000
02FD000000
1FE0000000
2F40000000
2800000000
ENDCHAR
STARTCHAR question
ENCODING 63
SWIDTH 592 0
DWIDTH 17 0
BBX 17 25 0 -1
BITMAP
1800000000
1D00000000
2FFFF90000
3FFFFFD000
3E407FF800
74000BFD00
A00002FF00
800001FF40
000000FF40
000001FF40
000002FF40
00000BFF00
00E9BFFD00
01FFFFF400
01FFFE4000
02FF000000
02FE000000
02FC000000
01B8000000
0000000000
1A90000000
7FF4000000
7FF8000000
3FF4000000
0A90000000
ENDCHAR
STARTCHAR at
ENCODING 64
SWIDTH 792 0
DWIDTH 22 0
BBX 23 20 0 -1
BITMAP
00006AA90000
001BFFFFD000
00BFE55BFD00
03FD0000BF40
0FF41AA42FC0
2FD1FFFE0FE0
7F43E07F47F0
BF07F02F83F4
BE07F01F82F8
FE01901F82FC
FE01BFFF82FC
FE07FABF82FC
BE0FE02F43F8
BF0FE03F43F4
7F4BFABF47F0
2FC1FFFF4BE0
0FF0003F9F80
07FD001FFE00
00BFE401A400
0006BFE40000
ENDCHAR
STARTCHAR A
ENCODING 65
SWIDTH 788 0
DWIDTH 22 0
BBX 31 25 -4 -6
BITMAP
0006AA5500000000
0000BFFF80000000
00000BFFD0000000
000000BFE0000000
0000003FF4000000
000000BFF8000000
000000FFFD000000
000002F7FE000000
000003D3FF400000
00000BC1FF800000
00001F40FFD00000
00002F007FE00000
00007FEABFF40000
0000BFFFFFF80000
0001FFFEAFFC0000
0002E0000BFE0000
0007D00007FF0000
001F800003FF8000
02FFE00001FFC000
6FFFFD0000FFE000
556AAF8000BFFE40
00000000007FFFF8
0000000001FFFE50
0000000007FE5000
000000001E500000
ENDCHAR
STARTCHAR B
ENCODING 66
SWIDTH 774 0
DWIDTH 22 0
BBX 25 23 -3 -4
BITMAP
6AA55555000000
1FFFFFFFF90000
02FFFFFFFFE400
002FFD56BFFD00
001FF80007FF40
000FF80000FF80
000FF80000FF80
000FFC0001FF40
000FFC001BFE00
000BFEABFFF800
000BFFFFFFD000
000BFFFFFF4000
000BFE5AFFE000
0007FD002FFC00
0007FD000BFE00
0007FD0007FE00
0007FD000BFE00
0003FD007FFD00
0003FE5BFFF400
001FFFFFFF4000
01BFFFFE940000
0BFEA540000000
14000000000000
ENDCHAR
STARTCHAR C
ENCODING 67
SWIDTH 766 0
DWIDTH 21 0
BBX 21 23 0 -2
BITMAP
000000000040
0000010000C0
0006BFF90280
002FFFFFDB80
01FFFFBFFF40
07FFD002FF40
0FFF00007F00
2FFD00002F00
3FF800000E00
7FF000000600
7FF000000100
7FE000000000
7FE000000000
7FF000000000
3FF000000000
2FF400000500
1FFC00000A00
0FFE00001E00
07FF80007F00
01FFF956FF40
007FFFFFF740
0007FFFF8180
000016940040
ENDCHAR
STARTCHAR D
ENCODING 68
SWIDTH 833 0
DWIDTH 23 0
BBX 27 20 -3 -1
BITMAP
6AAAAAAAA40000
06FFFFFFFF9000
006FFFFFFFF800
0002FFC01BFF00
0001FFC001FF80
0001FFC0007FD0
0000FFC0003FF0
0000FFC0002FF0
0000FFC0002FF4
0000FFC0001FF4
0000BF80002FF4
0000BF80002FF4
0000BF80002FF0
0000BF80003FE0
0000BF80007FD0
0000BF8001FF80
0000BF955BFE00
0006FFFFFFF800
002FFFFFFE8000
01AAA555400000
ENDCHAR
STARTCHAR E
ENCODING 69
SWIDTH 781 0
DWIDTH 22 0
BBX 23 21 -2 -1
BITMAP
0000556ABFF8
6AFFFFFFFFF8
1BFFFFEA97F8
006FFD0001F8
000BFD0000F8
000BFD0080B4
000BFD018034
000BFD038024
000BFD078004
000BFD0F8000
000BFEBF8000
0007FFFF8010
0007FFFF8020
0007FC1F8070
0007FC0B40B0
0007FC0340F0
0007FC0141F0
0007FC0002F0
001FFEAAABF0
06FFFFFFFFF0
2AAAAAAAAA90
ENDCHAR
STARTCHAR F
ENCODING 70
SWIDTH 731 0
DWIDTH 20 0
BBX 22 22 -2 -2
BITMAP
0000055AAFE0
5AAFFFFFFFE0
1BFFFFFAABE0
006FFD0007E0
000FFC0003E0
000FFC0002E0
000FFC0201E0
000FFC0700A0
000BFC0B0060
000BFC1F0020
000BFEFF0010
000BFFFF0000
000BFFFF0000
000BFC2F0000
000BFC0F0000
000BFC070000
000BFC020000
000BFC010000
000BFC000000
006FFE400000
06FFFFF40000
1AAAAAAA0000
ENDCHAR
STARTCHAR G
ENCODING 71
SWIDTH 828 0
DWIDTH 23 0
BBX 25 22 0 -1
BITMAP
00000000018000
00000550078000
0006FFFE5F8000
006FFFFFFF4000
01FFFEAFFF4000
07FFD002FF4000
0FFF00007F4000
2FFD00001F0000
3FF800000B0000
7FF40000030000
7FF00000010000
7FF00555555540
7FF001BFFFFE00
7FF00006FFD000
3FF40000BF8000
2FF80000BF8000
1FFD0000BFC000
0FFF0000FFC000
07FFD002FFC000
01FFFAAFFBC000
002FFFFFD1D000
0006FFF9005000
ENDCHAR
STARTCHAR H
ENCODING 72
SWIDTH 797 0
DWIDTH 22 0
BBX 26 23 -2 -3
BITMAP
000001AAAAAA90
0000001FFFFE40
55555551BFE400
2FFFFF807FE000
02FFF8007FD000
007FE0007FD000
007FE0007FD000
007FE0007FD000
007FE0007FD000
007FE0007FD000
003FE0007FD000
003FFFFFFFD000
003FFFFFFFD000
003FFAA57FD000
003FD0003FD000
003FD0003FD000
003FD0003FD000
003FD0003FD000
003FD006FFF900
003FD06FFFFFE0
01BFE400000000
1FFFFF90000000
55555554000000
ENDCHAR
STARTCHAR I
ENCODING 73
SWIDTH 445 0
DWIDTH 12 0
BBX 16 23 -2 -3
BITMAP
55555500
2FFFFFFE
01BFFF90
001FFD00
000FFC00
000FFC00
000FFC00
000BFC00
000BFC00
000BFC00
000BFC00
000BFC00
000BFC00
000BFC00
000BF800
0007F800
0007F800
0007F800
0007F800
0007F800
001FFE40
06FFFFE4
15555555
ENDCHAR
STARTCHAR J
ENCODING 74
SWIDTH 718 0
DWIDTH 20 0
BBX 26 25 -3 -4
BITMAP
00000000000590
000000005AFE00
000016BFFFE400
0006BFFFFF4000
0000015BFE0000
00000003FF0000
00000003FF0000
00000002FF0000
00000001FF4000
00000001FF4000
00000000FF8000
00000000FF8000
00000000FF8000
00000000BF8000
00000000BFC000
00000000BFC000
6FFFFD00BF8000
06FFD000FF8000
007F4000FF4000
003F4001FF0000
002FC003FE0000
001FE01BFC0000
0007FFFFF40000
0001BFFF800000
00000554000000
ENDCHAR
STARTCHAR K
ENCODING 75
SWIDTH 934 0
DWIDTH 26 0
BBX 33 24 -2 -3
BITMAP
000155564000000000
6FFFFFF90000000000
01BFFF406FFFFFE400
000FFD0007FFFE0000
000FFD0001FF900000
000FFD000BF9000000
000FFD007FD0000000
000BFC06FE00000000
000BFC2FF400000000
000BFEFFD000000000
000BFFFFF400000000
000BFF97FC00000000
000BFD02FE00000000
0007FC00FF80000000
0007FC007FD0000000
0007FC002FF4000000
0007FC000FFD000000
0007FC0007FF000000
0007FD0002FF800000
007FFFE400BFE00000
0BFFFFFF903FF40000
0000000001BFFF9000
000000002FFFFFF900
000000005555555540
ENDCHAR
STARTCHAR L
ENCODING 76
SWIDTH 712 0
DWIDTH 20 0
BBX 22 22 -2 0
BITMAP
6FFFFFFF8000
06FFFFF40000
001FFF400000
000BFE000000
000BFE000000
000BFE000000
000BFE000000
000BFE000000
0007FE000000
0007FE000000
0007FD000010
0007FD000020
0007FD0000A0
0007FD0000E0
0003FD0001E0
0003FD0002E0
0003FD0003E0
0003FD0007E0
0003FE555FE0
002FFFFFFFE0
02FFFFFFFFE0
1AAA55540000
ENDCHAR
STARTCHAR M
ENCODING 77
SWIDTH 1033 0
DWIDTH 29 0
BBX 33 22 -2 -1
BITMAP
000000000001540000
6FAAAA00000BFFFE40
06FFFF40001FFFD000
006FFF80002FFE0000
000FFFC0007FFD0000
000FFFE000FFFD0000
000BFFF001FFFD0000
000BFFF803FFFD0000
000BFFFC0BEFFD0000
000BEFFE0FCFFC0000
0007E7FF2F8FFC0000
0007E2FFBF0FFC0000
0007E1FFFE0FFC0000
0007E0BFFC0FFC0000
0007E03FF80FFC0000
0003E01FF00FFC0000
0003E00FE00FF80000
0003E007C00FF80000
0003E002800FF80000
0007F401007FFF8000
01BFFFE406FFFFF900
6AAAAAAA4000000000
ENDCHAR
STARTCHAR N
ENCODING 78
SWIDTH 840 0
DWIDTH 24 0
BBX 28 22 -2 -1
BITMAP
00000000555555
6EAAA91BFFFFF8
07FFFF00BFFF80
006FFF8006F800
000BFFE000F800
000BFFF400F800
000BFFFD00F800
000BEFFF00F800
000BCBFF80F400
000BC3FFE0F400
000BC0FFF4F400
000BC07FFDF400
000BC01FFFF400
000BC00BFFF400
000BD002FFF400
000BD000BFF400
000BD0003FF400
000BD0000FF400
007FFE4007F400
0BFFFFE401F400
6AAAABFF90B400
00000000002400
ENDCHAR
STARTCHAR O
ENCODING 79
SWIDTH 808 0
DWIDTH 23 0
BBX 22 19 0 -1
BITMAP
000005400000
0006FFFE4000
00BFFFFFF400
02FFF9AFFD00
0BFF4007FF40
2FFD0001FFC0
3FF40000BFE0
7FF000007FF0
7FE000007FF0
7FE000003FF0
7FE000007FF0
7FF000007FE0
3FF40000BFD0
1FFC0001FFC0
0BFE0007FF40
02FFE5AFFD00
007FFFFFE400
0006FFFE4000
000015400000
ENDCHAR
STARTCHAR P
ENCODING 80
SWIDTH 746 0
DWIDTH 21 0
BBX 23 19 -2 -1
BITMAP
6FAAAAA54000
07FFFFFFF900
006FFFFFFFE0
000FF4006FF8
000FF40003FC
000FF80002FC
000FF80007F8
000FF801BFE0
000FFFFFFE40
000FFFFF9000
000FFD500000
000FFC000000
000FFC000000
000FFC000000
000FFC000000
000FFD000000
007FFF400000
06FFFFF90000
2FAAAAAA4000
ENDCHAR
STARTCHAR Q
ENCODING 81
SWIDTH 789 0
DWIDTH 22 0
BBX 24 27 1 -9
BITMAP
001BFFE40000
01FFFFFF4000
0BFFEAFFE000
2FFD002FF800
7FF4000BFD00
BFE00007FE00
FFC00003FF00
FFC00002FF40
FF800002FF40
FFC00002FF40
FFC00002FF00
BFD00003FF00
7FE0000BFD00
2FF8002FF800
0BFE55FFE000
02FFFFFF8000
006FFFF90000
00015FF80000
00000BFC0000
000007FE0000
000003FFA940
000002FFFFF9
000007FFFE40
00002FFE9000
0000BF900000
000294000000
000400000000
ENDCHAR
STARTCHAR R
ENCODING 82
SWIDTH 826 0
DWIDTH 23 0
BBX 32 25 -2 -7
BITMAP
6FFFFAAA50000000
02FFFFFFFE400000
001FFEABFFE00000
000BF8001BFC0000
000BF80002FD0000
000BF80001FD0000
000BFC0007F80000
000BFC05BFE00000
000BFFFFFE400000
000BFFFFF8000000
000BFD47FD000000
000BFD02FF000000
000BFD00FF800000
000BFD00BFD00000
000BFD003FF00000
000BFD001FF80000
007FFF900FFD0000
06FFFFFD07FF0000
1AAAAAAA42FFEAA9
0000000001FFFFE4
0000000000FFFD00
0000000002FF9000
000000000BF40000
000000002E400000
0000000050000000
ENDCHAR
STARTCHAR S
ENCODING 83
SWIDTH 661 0
DWIDTH 19 0
BBX 18 23 0 -3
BITMAP
0000000010
0001500020
01BFFF90A0
0BFFFFFAE0
2FF406FFD0
7FC0002FD0
BFC0000BD0
BFE40001C0
BFFF900080
3FFFFF9000
1FFFFFF800
02FFFFFF40
001BFFFFD0
04005FFFF0
080001FFF0
0D00007FF0
0F40003FF0
1FE000BFD0
1FFEABFF80
1CBFFFFD00
2806AA5000
2000000000
1000000000
ENDCHAR
STARTCHAR T
ENCODING 84
SWIDTH 754 0
DWIDTH 21 0
BBX 19 20 1 -1
BITMAP
AAAAAAAAA8
BFFFFFFFFC
BEABFFABF8
BC03FF01F8
B803FF00F8
7403FE00B4
7003FE0074
6003FE0034
5003FE0020
0003FE0010
0003FE0000
0003FE0000
0003FE0000
0003FE0000
0003FE0000
0002FE0000
0007FE0000
006FFFD000
06FFFFFE00
0555555540
ENDCHAR
STARTCHAR U
ENCODING 85
SWIDTH 725 0
DWIDTH 20 0
BBX 24 20 -2 -1
BITMAP
000000055555
6AA95506FFFD
06FFFE406FD0
00BFE0001F80
00BFD0001F80
00BFD0001F80
00BFD0001F80
00BFD0000F80
00BFD0000F80
00FFD0000F80
00FFD0000F40
00FFD0000F40
00FFD0000F40
00BFD0000F40
00BFF0001F00
007FF4003E00
002FFE01FD00
000BFFFFF400
0002FFFFD000
00001AA50000
ENDCHAR
STARTCHAR V
ENCODING 86
SWIDTH 786 0
DWIDTH 22 0
BBX 28 22 -3 -2
BITMAP
000005A4000000
0006BF80540000
06BFFD002FE940
AFFFF40007FFFE
006FF80000BF90
001FFC0000F800
000BFD0002F000
0007FF0003E000
0002FF400BC000
0001FF800F8000
0000BFD02F0000
00007FE03D0000
00002FF0BC0000
00001FF9F40000
00000FFEF00000
000007FFD00000
000003FFC00000
000001FF400000
000000FF000000
0000007D000000
00000038000000
00000014000000
ENDCHAR
STARTCHAR W
ENCODING 87
SWIDTH 1026 0
DWIDTH 29 0
BBX 36 22 -3 -3
BITMAP
000000150000000000
556ABFF4001BA95000
6FFFFF400400BFFFA9
01BFF8002C000BFF90
002FF4003E0002E000
001FFC007F0003D000
000FFD00FF800BC000
000BFE01FFD00F8000
0003FF02FFE01F4000
0002FF47FFF42F0000
0001FF8BFFF83D0000
0000BFDFEFFD7C0000
00007FFFC7FFB80000
00003FFF83FFF40000
00002FFF01FFF00000
00000FFE00FFE00000
00000BFD007FC00000
000007F8003F800000
000003F4002F400000
000001E0000F000000
000000D0000A000000
000000400001000000
ENDCHAR
STARTCHAR X
ENCODING 88
SWIDTH 860 0
DWIDTH 24 0
BBX 28 20 -2 -2
BITMAP
00000005000000
155AAFF4000004
06FFFF41ABFFE4
001BFE002FFE00
0002FF801FE000
0000FFD07F4000
00007FF6FD0000
00001FFFF00000
00000BFF800000
000002FFC00000
000007FFE00000
00002FFFF80000
0000BF6FFD0000
0002FD0BFF4000
001FE003FFC000
01BF8001FFE000
1BFFE0007FF900
AAABFD00BFFFD0
0000000BFFFFFD
00000015540000
ENDCHAR
STARTCHAR Y
ENCODING 89
SWIDTH 848 0
DWIDTH 24 0
BBX 28 21 -3 -2
BITMAP
00000050000000
6ABFFFD0000000
1BFFFE00155500
006FFE001BFFFE
0007FF4001FF90
0001FFD000B900
00007FF002E000
00001FF80B8000
00000BFE2F0000
000002FFFC0000
000000BFF40000
0000003FD00000
0000002FD00000
0000002FD00000
0000002FD00000
0000002FE00000
0000002FE00000
0000003FE00000
0000003FF40000
000006FFFF9000
00006FFFFFF900
ENDCHAR
STARTCHAR Z
ENCODING 90
SWIDTH 685 0
DWIDTH 19 0
BBX 20 17 0 0
BITMAP
6AAAFFFFFE
7FFFFFFFF8
3FEAAAFFF0
2F0002FFD0
1E000BFF80
1E001FFE00
0D007FFC00
0901FFF400
0403FFD008
000BFF8018
002FFE0038
00BFFC0078
01FFF400F8
07FFE002F8
1FFFFFFFF4
3FFFFFFFF4
555556AAA4
ENDCHAR
STARTCHAR bracketleft
ENCODING 91
SWIDTH 380 0
DWIDTH 11 0
BBX 11 27 1 -4
BITMAP
7FFEA8
7FFF90
7FF900
7FD000
7FD000
7FD000
3FD000
3FC000
3FC000
3FC000
3FC000
3FC000
3FC000
3FC000
3FC000
3FC000
3FC000
3FC000
2FC000
2FC000
2FC000
2FC000
2FC000
2FD000
2FF900
2FFF90
155550
ENDCHAR
STARTCHAR backslash
ENCODING 92
SWIDTH 680 0
DWIDTH 19 0
BBX 19 27 0 -2
BITMAP
0040000000
07D0000000
6FE0000000
7FF4000000
2FFC000000
0FFE000000
0BFF000000
03FF800000
01FFD00000
00BFE00000
003FF40000
001FFC0000
000BFE0000
0007FF0000
0002FF8000
0000FFD000
00007FE000
00002FF400
00000FFC00
000007FE00
000003FF00
000001FF80
000000BFD0
0000003FF0
0000001FF4
0000000BE4
0000000340
ENDCHAR
STARTCHAR bracketright
ENCODING 93
SWIDTH 371 0
DWIDTH 10 0
BBX 11 27 -1 -4
BITMAP
AAFFF4
1BFFF4
01BFF4
001FF0
001FF0
001FF0
001FF0
001FF0
001FF0
001FF0
000FF0
000FF0
000FF0
000FF0
000FF0
000FE0
000FE0
000FE0
000FE0
000FE0
000FE0
000FE0
000FE0
001FE0
01FFE0
1BFFE0
555550
ENDCHAR
STARTCHAR asciicircum
ENCODING 94
SWIDTH 671 0
DWIDTH 19 0
BBX 19 17 0 8
BITMAP
0000500000
0000B00000
0001F80000
0003FD0000
000BFE0000
001FFF4000
002FFFC000
007FFFE000
00FFDBF400
02FFC2FC00
07FF40FE00
0BFF007F40
1FFD001FC0
3FFC000BE0
BFF40002F0
FFF00000E4
1AD0000000
ENDCHAR
STARTCHAR underscore
ENCODING 95
SWIDTH 840 0
DWIDTH 24 0
BBX 24 6 0 -3
BITMAP
000000000004
FFFFFFFFFFFD
FFFFFFFFFFFD
FFFFFFFFFFFD
FFFFFFFFFFFD
AAAAAAFFFFFE
ENDCHAR
STARTCHAR grave
ENCODING 96
SWIDTH 707 0
DWIDTH 20 0
BBX 6 7 8 16
BITMAP
1B00
BF40
7F80
2FC0
0FE0
0BE0
0200
ENDCHAR
STARTCHAR a
ENCODING 97
SWIDTH 572 0
DWIDTH 16 0
BBX 18 17 0 -1
BITMAP
0005540000
01BFFF4000
07FABFD000
1FD01FF000
2FE00BF400
2FE007F800
1FD007F800
015547F800
07FFFFF800
2FFAAFF400
7FD00FF400
7FC00FF400
7FD01FF000
2FFFFFF000
06FFFFF400
00152FFF40
00001A9550
ENDCHAR
STARTCHAR b
ENCODING 98
SWIDTH 723 0
DWIDTH 20 0
BBX 24 26 -4 -5
BITMAP
0005AB000000
6BFFFF000000
06FFFF000000
001BFF000000
0003FF000000
0003FF000000
0003FF000000
0003FF000000
0002FF000000
0002FE000000
0002FE000000
0002FE000000
0002FE155400
0002FFFFFFD0
0002FFFFFFF8
0002FE402FFD
0001FD000BFE
0001FD0003FF
0001FD0003FF
0001FD0003FE
0001FD000BFC
0001FD006FF4
0007FFBFFF80
001FFFFFF900
00BFFAA54000
015000000000
ENDCHAR
STARTCHAR c
ENCODING 99
SWIDTH 589 0
DWIDTH 17 0
BBX 16 16 1 -2
BITMAP
001AE900
01FFFF80
0BFEBFF0
2FF40BF8
7FD00FFC
BFC00BF8
FF8002E4
FF800000
FF800000
FF800009
BFD0001C
7FF00078
2FFE56F4
0BFFFFE0
02FFFF40
001AA400
ENDCHAR
STARTCHAR d
ENCODING 100
SWIDTH 713 0
DWIDTH 20 0
BBX 21 27 1 -5
BITMAP
00006EAA5400
000006FFF800
0000006FF800
0000001FF800
0000001FF400
0000002FF400
0000002FF000
0000002FF000
0000002FF000
0000002FE000
0000002FE000
006BE92FD000
02FFFFFFD000
1FFFAFFFD000
3FF400BFC000
7FD0003FC000
BF80003FC000
FF40003F8000
BF40007F8000
BF80007F4000
7FD0007F4000
2FF4007F4000
0BFFABFF0000
01BFFFFF0000
0005A9BFE500
000000BFFA40
000000550000
ENDCHAR
STARTCHAR e
ENCODING 101
SWIDTH 593 0
DWIDTH 17 0
BBX 16 15 1 -2
BITMAP
006BE400
02FFFF40
0FFFFFD0
3FE01FF0
7FC00BF8
FF4003FC
FF9557FD
FFFFFFFD
FFFFFFE9
FF400000
7FC00014
3FE401A0
0FFFFFC0
02FFFE00
001A9000
ENDCHAR
STARTCHAR f
ENCODING 102
SWIDTH 507 0
DWIDTH 14 0
BBX 18 38 -2 -11
BITMAP
00001AE400
00007FFE00
0001FEAFC0
0003FC0FD0
0007F40FE0
000BF41FF0
000FF00FE0
000FF00140
000FF00000
000FF00000
000FF40000
000FF40000
000FF40000
0BFFFFFE00
0BFFFFFE00
055BFD5500
0007FC0000
0007FC0000
0003FD0000
0003FD0000
0003FD0000
0002FE0000
0002FE0000
0002FE0000
0001FF0000
0001FF0000
0000FF0000
0000FF4000
0000FF4000
0000BF4000
0000BF4000
2F40BF4000
7F80BF4000
7F80FF0000
3F41FE0000
2FD7FC0000
0BFFF40000
01FF800000
ENDCHAR
STARTCHAR g
ENCODING 103
SWIDTH 606 0
DWIDTH 17 0
BBX 19 32 0 -14
BITMAP
0000001940
000000BFE0
000002FFF4
000047EFF4
006FFFCFF0
02FFFFD690
0BF80BF800
1FE003FD00
3FD001FE00
3FC000FF00
7F8000FF40
7FC000FF40
3FC000FF00
2FD002FE00
1FF007FC00
07FD5FF400
01FFFFD000
0BFAA90000
1FF8000000
1FFFFE9000
0BFFFFF800
07FFFFFF40
2FF401FFC0
7FC0007FD0
BF80002FE0
FF40001FF0
FF40001FE0
BF80002FE0
7FE0007FC0
1FFD57FF40
06FFFFF900
006BFE5000
ENDCHAR
STARTCHAR h
ENCODING 104
SWIDTH 678 0
DWIDTH 19 0
BBX 25 26 -4 -2
BITMAP
0005AB00000000
5AFFFF00000000
06FFFF00000000
001BFF00000000
0003FF00000000
0003FE00000000
0003FE00000000
0003FE00000000
0003FE00000000
0003FE00000000
0003FE00000000
0003FE00000000
0003FE15000000
0002FFFFF90000
0002FFFFFF8000
0002FE40BFE000
0002FD002FF000
0002FD001FF000
0002FD000FF000
0002FD000FF000
0002FC000FF000
0001FC000FE000
000BFF400FD000
007FFFE01FE000
01540001BFFD00
00000006AAAF80
ENDCHAR
STARTCHAR i
ENCODING 105
SWIDTH 393 0
DWIDTH 11 0
BBX 13 23 -1 0
BITMAP
00010000
001FD000
007FF000
007FF400
007FF000
002FE000
00064000
00000000
6AAAA000
0BFFF000
00BFF000
002FF000
002FF000
002FE000
001FE000
001FE000
001FE000
001FD000
001FD000
001FD000
006FE000
02FFFD00
1BFFFF80
ENDCHAR
STARTCHAR j
ENCODING 106
SWIDTH 385 0
DWIDTH 11 0
BBX 12 31 -2 -10
BITMAP
001500
007F80
00FFD0
01FFD0
00FFD0
007F80
000400
000150
1AFFF4
06FFF4
001FF8
000BF8
000BF8
0007FC
0007FC
0007FC
0003FC
0003FD
0003FD
0002FD
0002FE
0002FE
0001FE
1401FE
BE01FE
FF41FE
FF01FD
BE02FC
3FABF4
0BFFD0
006500
ENDCHAR
STARTCHAR k
ENCODING 107
SWIDTH 749 0
DWIDTH 21 0
BBX 27 26 -3 -3
BITMAP
00055800000000
6FFFFD00000000
01AFFD00000000
000FFC00000000
000FFC00000000
000FFC2FFFFFD0
000FFC07FFFD00
000FFC00BFD000
000BFC01FE0000
000BFC07F40000
000BFC2F800000
000BFCBE000000
000BFFFF400000
0007FFFF800000
0007FF6FD00000
0007FC0FF00000
0007F807F80000
0007F802FD0000
0007F801FF0000
0003F800BF4000
0007F8003FC000
006FFF901FE400
06FFFFE90BFF90
054000002FFF94
00000001FE9000
00000006400000
ENDCHAR
STARTCHAR l
ENCODING 108
SWIDTH 369 0
DWIDTH 10 0
BBX 15 26 -3 -2
BITMAP
6FFFFD00
02FFFC00
001FFC00
000FFC00
000FFC00
000BFC00
000BFC00
000BFC00
000BFC00
000BFC00
000BF800
000BF800
000BF800
0007F800
0007F800
0007F800
0007F800
0007F800
0007F800
0007F800
0003F400
0003F400
0003F400
000BFD00
007FFF80
02FFFEA4
ENDCHAR
STARTCHAR m
ENCODING 109
SWIDTH 990 0
DWIDTH 28 0
BBX 32 15 -2 1
BITMAP
0000100000000000
016BF1AA401A9000
BFFFFFFFE6FFF800
16FFFFFFFFFFFE00
002FF95BFFD6FF00
002FE003FF00FF40
001FE002FD00BF40
001FE001FC007F40
001FD001FC007F00
000FD001FC00BF00
000FD001F800BF00
007FF801F806FF90
06AAAA46F91AAFF9
000000BFFF900000
0000015555500000
ENDCHAR
STARTCHAR n
ENCODING 110
SWIDTH 643 0
DWIDTH 18 0
BBX 22 15 -2 1
BITMAP
000010000000
016BF1AA4000
BFFFFFFFE000
16FFFFFFF800
002FF95FFC00
002FE003FD00
001FE002FD00
001FE001FD00
001FD001FD00
000FD001FC00
000FD001FC00
007FF801F800
06AAAA06F900
000000BFFF90
000001555550
ENDCHAR
STARTCHAR o
ENCODING 111
SWIDTH 705 0
DWIDTH 20 0
BBX 20 15 0 -1
BITMAP
0000550000
006FFFF900
07FFFFFF80
1FFD007FF0
3FF0000FF8
7FD00007FC
BFC00003FD
BF800003FD
BFC00007FD
7FD0000BFC
2FF0001FF8
0FFD01BFE0
02FFFFFF40
006FFFE400
0000140000
ENDCHAR
STARTCHAR p
ENCODING 112
SWIDTH 723 0
DWIDTH 20 0
BBX 23 23 -3 -7
BITMAP
000154000000
6AFFF8000000
1BFFF8554000
006FFFFFFD00
000FFFEFFF80
000BFD007FF0
000BFC000FF4
000BFC0007F8
000BFC0007FC
000BFC0007FC
0007FC000BF8
0007FC001FF4
0007FE51BFE0
0007FFFFFF80
0007FEFFF900
0003FC154000
0003FC000000
0003FC000000
0003FC000000
0003FC000000
000BFF400000
01BFFFF90000
1AAAA5550000
ENDCHAR
STARTCHAR q
ENCODING 113
SWIDTH 682 0
DWIDTH 19 0
BBX 22 23 0 -7
BITMAP
0000006AAAA0
000000BFFE40
006FFEBFE400
07FFFFFFC000
1FFE56FFC000
3FE000BFC000
7F8000BFC000
BF8000BFC000
BF4000BF8000
BF8000BF8000
7FC000BF8000
2FF400BF8000
0FFFAFFF8000
02FFFFFF4000
001AA9BF4000
000000BF4000
000000BF4000
000000BF4000
000000BF4000
000001FF4000
00002FFFF400
0001AAFFFF80
000000000010
ENDCHAR
STARTCHAR r
ENCODING 114
SWIDTH 595 0
DWIDTH 17 0
BBX 20 18 -2 -1
BITMAP
0000580000
006BFC2FF4
6FFFFEFFFD
06BFFFFFFD
000FFF5BFD
000BFD02F8
000BFC0000
000BF80000
0007F80000
0007F80000
0007F80000
0003F80000
0003F80000
0003FD0000
001BFFE400
00BFFFFE40
07FEA54000
0400000000
ENDCHAR
STARTCHAR s
ENCODING 115
SWIDTH 533 0
DWIDTH 15 0
BBX 15 18 0 -1
BITMAP
00154010
02FFF430
1FFFFEB0
3F906FF0
7F4007F0
7FC001F0
7FF90060
2FFFE420
0FFFFE40
02FFFFD0
202FFFF4
2801BFF8
3E000BFC
3F8007F8
3FF96FF4
7AFFFFD0
606BE900
40000000
ENDCHAR
STARTCHAR t
ENCODING 116
SWIDTH 422 0
DWIDTH 12 0
BBX 14 26 -1 -1
BITMAP
0007C000
000B8000
000F8000
001F8000
002F8000
00BF4000
1BFF4000
7FFFFF90
7FFFFFD0
01FFAAD0
01FF0000
02FE0000
02FE0000
02FE0000
02FE0000
02FD0000
03FD0000
03FD0000
03FD0040
03FC0080
03FC0180
03FD0780
03FF6F40
02FFFF00
00BFFD00
001AA000
ENDCHAR
STARTCHAR u
ENCODING 117
SWIDTH 614 0
DWIDTH 17 0
BBX 21 16 -2 -2
BITMAP
AAAA45555400
1FFF46FFF800
02FF006FF800
01FF000BF400
01FF000BF400
01FE000BF000
01FE000BF000
01FE000FE000
01FE000FE000
00FE000FD000
00FF001FD000
00BFD5BFD000
003FFFFFE000
000BFFDFFE40
0000550FE500
000000040000
ENDCHAR
STARTCHAR v
ENCODING 118
SWIDTH 639 0
DWIDTH 18 0
BBX 24 18 -3 -2
BITMAP
000001400000
0016BE000000
6BFFF4000000
1BFFD07FEA95
007FD00BFFF4
002FF001FE40
001FF401F400
000BFC02F000
0003FD07D000
0002FF0FC000
0000FF5F4000
00007FFF0000
00002FFD0000
00001FFC0000
00000BF40000
000003F00000
000002D00000
000000800000
ENDCHAR
STARTCHAR w
ENCODING 119
SWIDTH 805 0
DWIDTH 23 0
BBX 29 16 -3 0
BITMAP
0015554004000000
BFFFF90106FFFE80
06FFD007006FE400
007FE00B402F4000
003FF01FC03E0000
001FF42FD07D0000
000FFC3FF0FC0000
0007FDBFF5F40000
0003FEFFFBF00000
0001FFF7FFE00000
0000FFE2FFC00000
0000BFC1FF800000
00003F80BF400000
00002F407E000000
00000E002D000000
0000090018000000
ENDCHAR
STARTCHAR x
ENCODING 120
SWIDTH 717 0
DWIDTH 20 0
BBX 26 18 -3 -2
BITMAP
00000164000000
016AFF90000000
5BFFFC1556AA40
001FFD1BFFF900
0007FF40FF4000
0001FFC3F80000
00007FFFD00000
00002FFF400000
00000BFD000000
000007FF400000
00002FFFC00000
0000BF7FE00000
0006FD1FF80000
01BFFD07FD0000
06AAFF91FFA400
00000007FFFF90
0000002FA95000
00000040000000
ENDCHAR
STARTCHAR y
ENCODING 121
SWIDTH 655 0
DWIDTH 18 0
BBX 19 28 -1 -13
BITMAP
A400000000
3F902A9500
1FFE07FFF4
07FF80BFF4
03FF401FF4
07FF001FF4
0BFE001FF4
0BFD001FF4
0FFC001FF4
0FFC001FF4
0BFD001FF0
07FF956FF0
02FFFFFFF0
00BFFFFFF0
0005542FF0
0000002FF0
0000002FF0
0000002FF0
0000002FE0
0040002FE0
07F0003FE0
0BF4003FD0
0FF4007FC0
0BE000FF80
07F406FF00
01FFFFFC00
006FFFE000
0005A50000
ENDCHAR
STARTCHAR z
ENCODING 122
SWIDTH 549 0
DWIDTH 15 0
BBX 17 16 0 -1
BITMAP
15555AAA40
7FFFFFFE00
7FFFFFFC00
3E003FF400
3D00BFD000
2D02FF8000
1C07FF0000
181FFD0400
043FF41800
00BFE02800
02FFC03800
07FF40B800
1FFF95F800
3FFFFFFC00
6ABFFFFC00
0000055400
ENDCHAR
STARTCHAR braceleft
ENCODING 123
SWIDTH 708 0
DWIDTH 20 0
BBX 16 27 2 -4
BITMAP
003FFFA9
003FFFD0
003FFD00
003FE000
003FD000
003FD000
003FD000
003FD000
003FD000
003FD000
003FD000
003FD000
06FFD000
7FFFD000
06BFD000
002FD000
002FD000
002FD000
002FD000
002FD000
002FD000
001FC000
001FC000
001FD000
001FFD00
001FFFD0
00055554
ENDCHAR
STARTCHAR bar
ENCODING 124
SWIDTH 304 0
DWIDTH 9 0
BBX 5 26 2 -2
BITMAP
5540
FF80
FF80
FF80
FF80
FF80
FF80
FF40
FF40
FF40
FF40
FF40
FF40
FF40
FF40
FF40
FF40
FF40
BF40
BF40
BF40
BF40
BF40
BF40
BF40
BF40
ENDCHAR
STARTCHAR braceright
ENCODING 125
SWIDTH 517 0
DWIDTH 15 0
BBX 15 27 0 -4
BITMAP
6AFFF800
0BFFF800
00BFF800
000FF800
000FF800
000FF800
000BF400
000BF400
000BF400
000BF400
000BF400
000BF400
000BFF90
000BFFF8
000BFE40
000BF400
000BF400
000BF400
000BF000
000BF000
000BF000
000BF000
000BF000
000BF000
00BFF000
0BFFF000
15555000
ENDCHAR
STARTCHAR asciitilde
ENCODING 126
SWIDTH 466 0
DWIDTH 13 0
BBX 13 6 0 6
BITMAP
05400040
BFF946C0
FFFFFFC0
FFFFFFC0
F9BFFFC0
9005A900
ENDCHAR
STARTCHAR uni00A0
ENCODING 160
SWIDTH 320 0
DWIDTH 9 0
BBX 1 1 0 0
BITMAP
00
ENDCHAR
STARTCHAR exclamdown
ENCODING 161
SWIDTH 305 0
DWIDTH 9 0
BBX 9 25 0 -9
BITMAP
001000
01FE00
02FF40
02FF40
00BE00
000000
01A800
02FC00
03F800
03F800
07F800
07F800
0BF800
0BF800
0FF800
0FF800
1FF400
1FF400
2FF400
3FF400
3FF400
7FF400
7FF400
BFF400
55A000
ENDCHAR
STARTCHAR cent
ENCODING 162
SWIDTH 417 0
DWIDTH 12 0
BBX 13 23 -1 -3
BITMAP
002FD000
001FC000
001FC000
001FC000
002FE000
02FFFD00
0BE02F40
1FC02F80
2F802F80
3F400A00
7F400000
7F400000
7F400000
3F800080
2FD00280
0FF95F00
07FFFD00
00BFE400
001FC000
001FC000
001FC000
002FD000
001FD000
ENDCHAR
STARTCHAR sterling
ENCODING 163
SWIDTH 658 0
DWIDTH 18 0
BBX 19 22 0 -2
BITMAP
0000000010
0000550030
000BFFE0B0
007FFFFEE0
00FFD6FFE0
02FF002FE0
03FE000BD0
03FD0003D0
FFFFAA92C0
FFFFFFD0C0
FFFFFFD080
557F400000
017F954008
FFFFFFD018
FFFFFFD038
5ABFAFD074
00BF0000B4
00FE5555F4
02FFFFFFF4
07FFFFFFF4
0AAABFFFF4
0000000010
ENDCHAR
STARTCHAR currency
ENCODING 164
SWIDTH 358 0
DWIDTH 10 0
BBX 10 10 0 5
BITMAP
180240
7EABD0
BFFFE0
2FAF80
1F0B80
1F0B80
1FFF80
7FFFD0
BD67E0
240140
ENDCHAR
STARTCHAR yen
ENCODING 165
SWIDTH 796 0
DWIDTH 22 0
BBX 26 19 -3 0
BITMAP
00001500000000
5AAFF800000000
1BFFD002AAAA90
006FF0007FFE40
000BF8000F9000
0002FE003E0000
0000BF80F80000
00003FE7E00000
00000FFF800000
000003FE000000
0001AAFD540000
0001FFFFFC0000
000155FD540000
0001AAFFFC0000
0001FFFFFC0000
000001FE540000
000002FE400000
00006FFFF90000
0006AAAAAA9000
ENDCHAR
STARTCHAR brokenbar
ENCODING 166
SWIDTH 304 0
DWIDTH 9 0
BBX 5 26 2 -2
BITMAP
5540
FF80
FF80
FF80
FF80
FF80
FF80
FF40
FF40
FF40
A540
0000
0000
0000
0000
5500
FF40
FF40
BF40
BF40
BF40
BF40
BF40
BF40
BF40
BF40
ENDCHAR
STARTCHAR section
ENCODING 167
SWIDTH 646 0
DWIDTH 18 0
BBX 16 33 1 -8
BITMAP
00194004
02FFF808
1FFFFF4C
3F906FEC
7F0007F8
BF0000F8
FF400078
BFD00018
7FFE0004
3FFFE400
0FFFFF40
07FFFFE0
1FFFFFF8
3F86FFFD
BF002FFF
BF0003FF
FF4001FF
BFE001FE
7FFE47FD
2FFFFFF8
0FFFFFD0
02FFFFE0
006FFFF8
1006FFFD
30001FFE
780002FF
7E0001FF
7F8001FE
7FF917FD
B7FFFFF4
A06FFF90
80005000
40000000
ENDCHAR
STARTCHAR dieresis
ENCODING 168
SWIDTH 708 0
DWIDTH 20 0
BBX 9 4 5 23
BITMAP
140500
3F0FC0
7F1FC0
2E0B40
ENDCHAR
STARTCHAR copyright
ENCODING 169
SWIDTH 700 0
DWIDTH 20 0
BBX 20 18 0 1
BITMAP
0006BE9000
00BFFFFD00
07FE95BF80
1FE4001FE0
3F81FF43F4
7E07D7D1FC
BD1F42E0BD
FC2F01D07D
FC2E00007E
FC2E00007E
FC2F0010BD
BD1F80A0BC
7E0BFBC1F8
2F81BE03F4
0FE0001FD0
02FE9AFF40
007FFFF800
0006AA4000
ENDCHAR
STARTCHAR ordfeminine
ENCODING 170
SWIDTH 399 0
DWIDTH 11 0
BBX 13 12 -1 10
BITMAP
02FF8000
1FEFF000
2F82F400
2F82F800
0A56F800
1BFFF800
3F97F800
7F43F400
3FEBF400
1FFFF800
0057FF40
00010000
ENDCHAR
STARTCHAR guillemotleft
ENCODING 171
SWIDTH 424 0
DWIDTH 12 0
BBX 12 15 0 -1
BITMAP
001008
00B01D
01F07D
07E0BC
0FD2F8
2F87F0
7F4FE0
BF1FD0
7F4FE0
2FC7F4
0BD1F8
03E0BC
01F03D
00B01D
001004
ENDCHAR
STARTCHAR logicalnot
ENCODING 172
SWIDTH 541 0
DWIDTH 15 0
BBX 17 15 0 1
BITMAP
4000000000
5000000800
6000001800
7000003800
7FFFAAB800
7FFFFFF800
7FFFFFF400
7FFFFFF400
700002F400
600001F400
400001F400
000000F000
000002F800
00000BFE00
0000000140
ENDCHAR
STARTCHAR sfthyphen
ENCODING 173
SWIDTH 530 0
DWIDTH 15 0
BBX 15 5 0 7
BITMAP
FFFEAAA4
FFFFFFF8
FFFFFFF8
FFFFFFF8
AAAA5554
ENDCHAR
STARTCHAR registered
ENCODING 174
SWIDTH 700 0
DWIDTH 20 0
BBX 20 18 0 1
BITMAP
0005AA4000
007FFFF900
07FFAAFF80
0FF4001FE0
2F800007F4
7F06F6F5FC
BD1BFFFCFD
FC01FDB8BD
FC01F4007E
FC00F4007E
FC00F4007D
BD00F000BD
7E01FE01FC
2F46A942F4
1FD0001BE0
07FD55BF80
00BFFFFD00
0006FE9000
ENDCHAR
STARTCHAR macron
ENCODING 175
SWIDTH 705 0
DWIDTH 20 0
BBX 8 4 7 20
BITMAP
FFFE
FFFF
FFFF
AAAA
ENDCHAR
STARTCHAR degree
ENCODING 176
SWIDTH 364 0
DWIDTH 10 0
BBX 8 8 1 12
BITMAP
0BE0
2FFC
7EBE
B82E
7D2E
3FFD
1FF4
0140
ENDCHAR
STARTCHAR plusminus
ENCODING 177
SWIDTH 607 0
DWIDTH 17 0
BBX 17 18 0 0
BITMAP
000AA40000
000BF80000
000BF80000
000BF80000
7FFFFEA500
7FFFFFFF40
7FFFFFFF40
7FFFFFFF40
555BF94000
0007F40000
0007F40000
0007F40000
0001600000
3AAA555400
3FFFFFFF40
3FFFFFFF00
3FFFFFFF00
2AAAAA5500
ENDCHAR
STARTCHAR twosuperior
ENCODING 178
SWIDTH 440 0
DWIDTH 12 0
BBX 12 15 0 10
BITMAP
201A40
2AFFF4
2FFFFC
2F81FE
1E00BF
1D00BE
1C01FD
080BF9
04BFD2
07FE0A
1FE01E
7FD57E
BFFFFE
FFFFFD
555AA9
ENDCHAR
STARTCHAR threesuperior
ENCODING 179
SWIDTH 442 0
DWIDTH 12 0
BBX 12 16 0 9
BITMAP
500000
706A40
3BFFF4
2FFBFC
2F41FE
1D00BE
0800FE
04BBFC
00BFFD
046BFE
1800FF
2D00FF
2F92FE
3FFFFC
76FFE0
501500
ENDCHAR
STARTCHAR acute
ENCODING 180
SWIDTH 694 0
DWIDTH 19 0
BBX 6 7 8 20
BITMAP
1E40
2FD0
3F80
7F40
BE00
7D00
0400
ENDCHAR
STARTCHAR mu
ENCODING 181
SWIDTH 1000 0
DWIDTH 28 0
BBX 22 22 0 -8
BITMAP
6AAA85555400
0BFF81FFFD00
01FF801FFC00
00BF8003FC00
00BF4003F800
00BF4007F800
00BF4007F400
00BF4007F400
00BF4007F400
00BF4007F000
00BF800BF000
00BFE57FE000
00BFFFFFF400
00BFFFEBFF90
007F550BE940
007F00000000
007F00000000
007F00000000
007F00000000
007F00000000
007F00000000
001500000000
ENDCHAR
STARTCHAR paragraph
ENCODING 182
SWIDTH 782 0
DWIDTH 22 0
BBX 24 20 -1 -1
BITMAP
000001555555
005BFFFFFFE4
06FFFFFFFE40
2FFE6FDBF000
7FD01F87E000
7F401F87E000
7F802F87E000
2FE42F87E000
07FFAF9BE000
006FFFFFE000
00016FFFE000
00002F87E000
00002F47E000
00002F4BE000
00002F4BE000
00002F4BE000
00002FBFF400
00002FFFFE40
0006FFFFFFE4
01BFAAAA5554
ENDCHAR
STARTCHAR periodcentered
ENCODING 183
SWIDTH 226 0
DWIDTH 6 0
BBX 6 5 0 8
BITMAP
1F80
7FE0
BFF0
7FE0
1A80
ENDCHAR
STARTCHAR cedilla
ENCODING 184
SWIDTH 780 0
DWIDTH 22 0
BBX 6 9 8 -5
BITMAP
0900
2E00
7E00
FFD0
5BF0
01F0
61F0
FFE0
7F80
ENDCHAR
STARTCHAR onesuperior
ENCODING 185
SWIDTH 390 0
DWIDTH 11 0
BBX 10 15 0 9
BITMAP
006F40
6FFF40
1AFF40
00BF40
00BF40
007F40
007F00
007F00
007F00
007F00
007F00
007F00
01FF80
0BFFE0
000150
ENDCHAR
STARTCHAR ordmasculine
ENCODING 186
SWIDTH 449 0
DWIDTH 13 0
BBX 14 11 -1 11
BITMAP
00155000
06FFFD00
1FFABF80
3F801FD0
7F000BE0
BF000BE0
7F400FE0
3F802FD0
1FFAFF40
02FFF800
00050000
ENDCHAR
STARTCHAR guillemotright
ENCODING 187
SWIDTH 415 0
DWIDTH 12 0
BBX 12 15 0 -1
BITMAP
200800
740E00
BC1F40
3E0BC0
2F47E0
1FD3F8
0BF1FD
07F4FE
0FE1FD
1FC3F4
2F47E0
7E0BC0
BC1F40
740E00
100400
ENDCHAR
STARTCHAR onequarter
ENCODING 188
SWIDTH 918 0
DWIDTH 26 0
BBX 25 29 0 -4
BITMAP
00000000008000
006F400001F400
6FFF400003FC00
1AFF40000BF800
00BF40001FF000
00BF40002FD000
007F40007F8000
007F0000FF0000
007F0002FD0000
007F0007F80000
007F000BF40000
007F001FE00400
007F003FC02400
01FF80BF40B400
0BFFE0FE01F400
000152FC07F400
000007F41FF400
00000FF03FF440
00001FD0BFF480
00003F82FBF680
0000BF0BE3F780
0001FD1FFFFF80
0002F87FFFFF80
0007F01503F740
000FD00003F140
002FC00007F440
007F4001BFFF40
007E0005555540
00080000000000
ENDCHAR
STARTCHAR onehalf
ENCODING 189
SWIDTH 1007 0
DWIDTH 28 0
BBX 28 29 0 -4
BITMAP
00000000008000
006F400001F400
6FFF400003FC00
1AFF40000BF800
00BF40001FF000
00BF40002FD000
007F40007F8000
007F0000FF0000
007F0002FD0000
007F0007F80000
007F000BF40000
007F001FE00000
007F003FC00000
01FF80BF400000
0BFFE0FE201500
000152FC39FFE0
000007F42FFFFC
00000FF02F91FE
00001FD02F00BE
00003F801D00BE
0000BF001C01FE
0001FD00180BF9
0002F800047FE2
0007F00006FE4A
000FD0001FE41E
002FC0007FC07E
007F4000BFFFFD
007E0000FFFFFD
000800006AAABD
ENDCHAR
STARTCHAR threequarters
ENCODING 190
SWIDTH 936 0
DWIDTH 26 0
BBX 26 29 0 -4
BITMAP
50000000005000
706A400000F800
3BFFF40002FE00
2FFBFC0003FC00
2F41FE000BF400
1D00BE001FE000
0800FE003FD000
04BBFC007F8000
00BFFD00FF0000
046BFE02FD0000
1800FF07F80000
2D00FF0BF00400
2F92FE1FD01C00
3FFFFC3F803C00
76FFE0BF40FC00
501501FE02FC00
000002FC0BFC00
000007F41FFC00
00000FE07FFC80
00002FC1FEF8C0
00003F43F6FAC0
0000BE0BFFFFC0
0001FD2FFFFFC0
0003F81502FAC0
0007F00001F880
000FD00006F840
002F80007FFF80
002F0001555550
00050000000000
ENDCHAR
STARTCHAR questiondown
ENCODING 191
SWIDTH 568 0
DWIDTH 16 0
BBX 17 25 -1 -9
BITMAP
000002FD00
000007FF40
000007FF80
000002FF40
0000005400
0000050000
00000BE000
00000FF000
00002FE000
00017FE000
00BFFFE000
07FFFFD000
1FFE559000
2FF4000000
3FE0000000
7FD0000000
7FD0000040
3FD0000080
2FF0000280
0FFD000B40
07FF957F40
00BFFFFF00
0006AAAE00
0000000E00
0000000500
ENDCHAR
STARTCHAR Agrave
ENCODING 192
SWIDTH 788 0
DWIDTH 22 0
BBX 31 34 -4 -6
BITMAP
0000006C00000000
000002FD00000000
000001FE00000000
000000BF00000000
0000007F40000000
0000002F40000000
0000000800000000
0000000000000000
0000000000000000
0006AA5500000000
0000BFFF80000000
00000BFFD0000000
000000BFE0000000
0000003FF4000000
000000BFF8000000
000000FFFD000000
000002F7FE000000
000003D3FF400000
00000BC1FF800000
00001F40FFD00000
00002F007FE00000
00007FEABFF40000
0000BFFFFFF80000
0001FFFEAFFC0000
0002E0000BFE0000
0007D00007FF0000
001F800003FF8000
02FFE00001FFC000
6FFFFD0000FFE000
556AAF8000BFFE40
00000000007FFFF8
0000000001FFFE50
0000000007FE5000
000000001E500000
ENDCHAR
STARTCHAR Aacute
ENCODING 193
SWIDTH 788 0
DWIDTH 22 0
BBX 31 34 -4 -6
BITMAP
0000000780000000
0000000BF0000000
0000000FE0000000
0000001FC0000000
0000002F80000000
0000002F00000000
0000000100000000
0000000000000000
0000000000000000
0006AA5500000000
0000BFFF80000000
00000BFFD0000000
000000BFE0000000
0000003FF4000000
000000BFF8000000
000000FFFD000000
000002F7FE000000
000003D3FF400000
00000BC1FF800000
00001F40FFD00000
00002F007FE00000
00007FEABFF40000
0000BFFFFFF80000
0001FFFEAFFC0000
0002E0000BFE0000
0007D00007FF0000
001F800003FF8000
02FFE00001FFC000
6FFFFD0000FFE000
556AAF8000BFFE40
00000000007FFFF8
0000000001FFFE50
0000000007FE5000
000000001E500000
ENDCHAR
STARTCHAR Acircumflex
ENCODING 194
SWIDTH 788 0
DWIDTH 22 0
BBX 31 33 -4 -6
BITMAP
0000000A00000000
0000001F80000000
0000007FD0000000
000000FFF4000000
000002FEFC000000
00000BE07E000000
0000024009000000
0000000000000000
0006AA5500000000
0000BFFF80000000
00000BFFD0000000
000000BFE0000000
0000003FF4000000
000000BFF8000000
000000FFFD000000
000002F7FE000000
000003D3FF400000
00000BC1FF800000
00001F40FFD00000
00002F007FE00000
00007FEABFF40000
0000BFFFFFF80000
0001FFFEAFFC0000
0002E0000BFE0000
0007D00007FF0000
001F800003FF8000
02FFE00001FFC000
6FFFFD0000FFE000
556AAF8000BFFE40
00000000007FFFF8
0000000001FFFE50
0000000007FE5000
000000001E500000
ENDCHAR
STARTCHAR Atilde
ENCODING 195
SWIDTH 788 0
DWIDTH 22 0
BBX 31 32 -4 -6
BITMAP
0000005401000000
000003FF9E000000
000003FFFE000000
000003EFFE000000
00000202A8000000
0000000000000000
0000000000000000
0006AA5500000000
0000BFFF80000000
00000BFFD0000000
000000BFE0000000
0000003FF4000000
000000BFF8000000
000000FFFD000000
000002F7FE000000
000003D3FF400000
00000BC1FF800000
00001F40FFD00000
00002F007FE00000
00007FEABFF40000
0000BFFFFFF80000
0001FFFEAFFC0000
0002E0000BFE0000
0007D00007FF0000
001F800003FF8000
02FFE00001FFC000
6FFFFD0000FFE000
556AAF8000BFFE40
00000000007FFFF8
0000000001FFFE50
0000000007FE5000
000000001E500000
ENDCHAR
STARTCHAR Adieresis
ENCODING 196
SWIDTH 788 0
DWIDTH 22 0
BBX 31 31 -4 -6
BITMAP
0000005010000000
000003F0FC000000
000003F4FD000000
000002E0B8000000
0000000000000000
0000000000000000
0006AA5500000000
0000BFFF80000000
00000BFFD0000000
000000BFE0000000
0000003FF4000000
000000BFF8000000
000000FFFD000000
000002F7FE000000
000003D3FF400000
00000BC1FF800000
00001F40FFD00000
00002F007FE00000
00007FEABFF40000
0000BFFFFFF80000
0001FFFEAFFC0000
0002E0000BFE0000
0007D00007FF0000
001F800003FF8000
02FFE00001FFC000
6FFFFD0000FFE000
556AAF8000BFFE40
00000000007FFFF8
0000000001FFFE50
0000000007FE5000
000000001E500000
ENDCHAR
STARTCHAR Aring
ENCODING 197
SWIDTH 788 0
DWIDTH 22 0
BBX 31 30 -4 -6
BITMAP
0000000A40000000
0000003FE0000000
000000B9F0000000
000000B4B0000000
0000007EE0000000
0006AA7FC0000000
0000BFFF80000000
00000BFFD0000000
000000BFE0000000
0000003FF4000000
000000BFF8000000
000000FFFD000000
000002F7FE000000
000003D3FF400000
00000BC1FF800000
00001F40FFD00000
00002F007FE00000
00007FEABFF00000
0000BFFFFFF80000
0001FFFEAFFC0000
0002E0000BFE0000
0007D00007FF0000
001F800003FF8000
02FFE00001FFC000
6FFFFD0000FFE000
556AAF8000BFFE40
00000000007FFFF8
0000000001FFFE50
0000000007FE5000
000000001E500000
ENDCHAR
STARTCHAR AE
ENCODING 198
SWIDTH 1019 0
DWIDTH 29 0
BBX 35 23 -7 -2
BITMAP
000000000000000010
0000005556AAAFFFF4
00001FFFFFFFFFFFF4
000002FFFFFFFA97F4
0000002FFFFE0002F4
00000007FBFE0000F4
00000007E7FE0040B4
0000000FD7FE008074
0000002F47FE028020
0000007E07FE038010
000000FD03FE0B8000
000002F403FFBF8000
000003E003FFFF8010
00000BD003FFFF8020
00001FFFFFFE0F8060
00003FFFFFFE0780A0
0000BEAAABFE0280E0
0001F40003FE0081E0
0002E00003FE0002E0
001BD0001BFFAAABE0
06FFF406FFFFFFFFE0
6FFFFE5AAAAAAAAA90
00556A800000000000
ENDCHAR
STARTCHAR Ccedilla
ENCODING 199
SWIDTH 766 0
DWIDTH 21 0
BBX 21 31 0 -10
BITMAP
000000000040
0000010000C0
0006BFF90280
002FFFFFDB80
01FFFFBFFF40
07FFD002FF40
0FFF00007F00
2FFD00002F00
3FF800000E00
7FF000000600
7FF000000100
7FE000000000
7FE000000000
7FF000000000
3FF000000000
3FF400000500
1FFC00000A00
0FFE00001E00
07FF80007F00
01FFF956FF40
007FFFFFF740
0007FFFF8180
00002E940040
00007C000000
0000BF400000
0001FFD00000
000006E00000
000041F00000
0001FBE00000
0001FFC00000
00002A000000
ENDCHAR
STARTCHAR Egrave
ENCODING 200
SWIDTH 781 0
DWIDTH 22 0
BBX 23 29 -2 -1
BITMAP
000001E00000
00000FF00000
00000BF40000
000007F80000
000002FC0000
000000FC0000
000000500000
000000000000
0000556ABFF8
6AFFFFFFFFF8
1BFFFFEA97F8
006FFD0001F8
000BFD0000F8
000BFD0080B4
000BFD018034
000BFD038024
000BFD078004
000BFD0F8000
000BFEBF8000
0007FFFF8010
0007FFFF8020
0007FC1F8070
0007FC0B40B0
0007FC0340F0
0007FC0141F0
0007FC0002F0
001FFEAAABF0
06FFFFFFFFF0
2AAAAAAAAA90
ENDCHAR
STARTCHAR Eacute
ENCODING 201
SWIDTH 781 0
DWIDTH 22 0
BBX 23 29 -2 -1
BITMAP
000000390000
0000007F8000
000000BF4000
000000FE0000
000001FC0000
000001B80000
000000100000
000000000000
0000556ABFF8
6AFFFFFFFFF8
1BFFFFEA97F8
006FFD0001F8
000BFD0000F8
000BFD0080B4
000BFD018034
000BFD038024
000BFD078004
000BFD0F8000
000BFEBF8000
0007FFFF8010
0007FFFF8020
0007FC1F8070
0007FC0B40B0
0007FC0340F0
0007FC0141F0
0007FC0002F0
001FFEAAABF0
06FFFFFFFFF0
2AAAAAAAAA90
ENDCHAR
STARTCHAR Ecircumflex
ENCODING 202
SWIDTH 781 0
DWIDTH 22 0
BBX 23 30 -2 -1
BITMAP
000000900000
000002F00000
00000BF80000
00001FFE0000
00007FBF4000
0000FD0BD000
0000A0018000
000000000000
000000000000
0000556ABFF8
6AFFFFFFFFF8
1BFFFFEA97F8
006FFD0001F8
000BFD0000F8
000BFD0080B4
000BFD018034
000BFD038024
000BFD078004
000BFD0F8000
000BFEBF8000
0007FFFF8010
0007FFFF8020
0007FC1F8070
0007FC0B40B0
0007FC0340F0
0007FC0141F0
0007FC0002F0
001FFEAAABF0
06FFFFFFFFF0
2AAAAAAAAA90
ENDCHAR
STARTCHAR Edieresis
ENCODING 203
SWIDTH 781 0
DWIDTH 22 0
BBX 23 27 -2 -1
BITMAP
000005010000
00003F0FC000
00003F4FD000
00002E0B8000
000000000000
000000000000
0000556ABFF8
6AFFFFFFFFF8
1BFFFFEA97F8
006FFD0001F8
000BFD0000F8
000BFD0080B4
000BFD018034
000BFD038024
000BFD078004
000BFD0F8000
000BFEBF8000
0007FFFF8010
0007FFFF8020
0007FC1F8070
0007FC0B40B0
0007FC0340F0
0007FC0141F0
0007FC0002F0
001FFEAAABF0
06FFFFFFFFF0
2AAAAAAAAA90
ENDCHAR
STARTCHAR Igrave
ENCODING 204
SWIDTH 445 0
DWIDTH 12 0
BBX 16 31 -2 -3
BITMAP
00068000
003FD000
002FE000
000FF000
0007F400
0003F400
00014000
00000000
55555500
2FFFFFFE
01BFFF90
001FFD00
000FFC00
000FFC00
000FFC00
000BFC00
000BFC00
000BFC00
000BFC00
000BFC00
000BFC00
000BFC00
000BF800
0007F800
0007F800
0007F800
0007F800
0007F800
001FFE40
06FFFFE4
15555555
ENDCHAR
STARTCHAR Iacute
ENCODING 205
SWIDTH 445 0
DWIDTH 12 0
BBX 16 31 -2 -3
BITMAP
00007800
0000BF40
0000FE00
0001FD00
0002F800
0001F000
00001000
00000000
55555500
2FFFFFFE
01BFFF90
001FFD00
000FFC00
000FFC00
000FFC00
000BFC00
000BFC00
000BFC00
000BFC00
000BFC00
000BFC00
000BFC00
000BF800
0007F800
0007F800
0007F800
0007F800
0007F800
001FFE40
06FFFFE4
15555555
ENDCHAR
STARTCHAR Icircumflex
ENCODING 206
SWIDTH 445 0
DWIDTH 12 0
BBX 16 31 -2 -3
BITMAP
00009000
0002F400
000BFC00
001FFE00
007FBF80
00FD0BD0
00600180
00000000
55555500
2FFFFFFE
01BFFF90
001FFD00
000FFC00
000FFC00
000FFC00
000BFC00
000BFC00
000BFC00
000BFC00
000BFC00
000BFC00
000BFC00
000BF800
0007F800
0007F800
0007F800
0007F800
0007F800
001FFE40
06FFFFE4
15555555
ENDCHAR
STARTCHAR Idieresis
ENCODING 207
SWIDTH 445 0
DWIDTH 12 0
BBX 16 28 -2 -3
BITMAP
00140500
007E1F80
00BE2F80
002D0B40
00000000
55555500
2FFFFFFE
01BFFF90
001FFD00
000FFC00
000FFC00
000FFC00
000BFC00
000BFC00
000BFC00
000BFC00
000BFC00
000BFC00
000BFC00
000BF800
0007F800
0007F800
0007F800
0007F800
0007F800
001FFE40
06FFFFE4
15555555
ENDCHAR
STARTCHAR Eth
ENCODING 208
SWIDTH 1000 0
DWIDTH 28 0
BBX 27 20 0 -1
BITMAP
6AAAAAAAA50000
06FFFFFFFFD000
002FFFFFFFFD00
0001FFD007FF40
0000FFD000BFD0
0000FFD0003FF0
0000FFD0002FF4
0000FFD0001FF8
02A9FFD5000FF8
07FFFFFFE00FFC
07FFFFFFE00FF8
07FEFFEA900FF8
00007FC0001FF4
00007FC0002FF4
00007FC0003FE0
00007F8000BFD0
00007FD55BFF40
0002FFFFFFFD00
002FFFFFFF9000
01AAA955500000
ENDCHAR
STARTCHAR Ntilde
ENCODING 209
SWIDTH 840 0
DWIDTH 24 0
BBX 28 29 -2 -1
BITMAP
00000140100000
00001FF9B00000
00001FFFF00000
00001FFFF00000
0000141A900000
00000000000000
00000000000000
00000000555555
6EAAA91BFFFFF8
07FFFF00BFFF80
006FFF8006F800
000BFFE000F800
000BFFF400F800
000BFFFD00F800
000BEFFF00F800
000BCBFF80F400
000BC3FFE0F400
000BC0FFF4F400
000BC07FFDF400
000BC01FFFF400
000BC00BFFF400
000BD002FFF400
000BD000BFF400
000BD0003FF400
000BD0000FF400
007FFE4007F400
0BFFFFE401F400
6AAAABFF90B400
00000000002400
ENDCHAR
STARTCHAR Ograve
ENCODING 210
SWIDTH 808 0
DWIDTH 23 0
BBX 22 27 0 -1
BITMAP
000007800000
00003FC00000
00002FD00000
00000FE00000
00000BF00000
000003F40000
000001400000
000000000000
000005400000
0006FFFE4000
00BFFFFFF400
02FFF9AFFD00
0BFF4007FF40
2FFD0001FFC0
3FF40000BFE0
7FF000007FF0
7FE000007FF0
7FE000003FF0
7FE000007FF0
7FF000007FE0
3FF40000BFD0
1FFC0001FFC0
0BFE0007FF40
02FFE5AFFD00
007FFFFFE400
0006FFFE4000
000015400000
ENDCHAR
STARTCHAR Oacute
ENCODING 211
SWIDTH 808 0
DWIDTH 23 0
BBX 22 26 0 -1
BITMAP
000002D00000
000003FC0000
000007F80000
00000BF00000
00000FD00000
00000BC00000
000000400000
000005400000
0006FFFE4000
00BFFFFFF400
02FFF9AFFD00
0BFF4007FF40
2FFD0001FFC0
3FF40000BFE0
7FF000007FF0
7FE000007FF0
7FE000003FF0
7FE000007FF0
7FF000007FE0
3FF40000BFD0
1FFC0001FFC0
0BFE0007FF40
02FFE5AFFD00
007FFFFFE400
0006FFFE4000
000015400000
ENDCHAR
STARTCHAR Ocircumflex
ENCODING 212
SWIDTH 808 0
DWIDTH 23 0
BBX 22 27 0 -1
BITMAP
000006000000
00000F800000
00002FE00000
0000BFF40000
0001FEFD0000
0007E07F0000
0002400A0000
000000000000
000005400000
0006FFFE4000
00BFFFFFF400
02FFF9AFFD00
0BFF4007FF40
2FFD0001FFC0
3FF40000BFE0
7FF000007FF0
7FE000007FF0
7FE000003FF0
7FE000007FF0
7FF000007FE0
3FF40000BFD0
1FFC0001FFC0
0BFE0007FF40
02FFE5AFFD00
007FFFFFE400
0006FFFE4000
000015400000
ENDCHAR
STARTCHAR Otilde
ENCODING 213
SWIDTH 808 0
DWIDTH 23 0
BBX 22 26 0 -1
BITMAP
000014010000
0001FF9B0000
0001FFFF0000
0001FFFF0000
000141A90000
000000000000
000000000000
000005400000
0006FFFE4000
00BFFFFFF400
02FFF9AFFD00
0BFF4007FF40
2FFD0001FFC0
3FF40000BFE0
7FF000007FF0
7FE000007FF0
7FE000003FF0
7FE000007FF0
7FF000007FE0
3FF40000BFD0
1FFC0001FFC0
0BFE0007FF40
02FFE5AFFD00
007FFFFFE400
0006FFFE4000
000015400000
ENDCHAR
STARTCHAR Odieresis
ENCODING 214
SWIDTH 808 0
DWIDTH 23 0
BBX 22 24 0 -1
BITMAP
000050140000
0002F4BD0000
0002F4FD0000
0001E0780000
000000000000
000005400000
0006FFFE4000
00BFFFFFF400
02FFF9AFFD00
0BFF4007FF40
2FFD0001FFC0
3FF40000BFE0
7FF000007FF0
7FE000007FF0
7FE000003FF0
7FE000007FF0
7FF000007FE0
3FF40000BFD0
1FFC0001FFC0
0BFE0007FF40
02FFE5AFFD00
007FFFFFE400
0006FFFE4000
000015400000
ENDCHAR
STARTCHAR multiply
ENCODING 215
SWIDTH 556 0
DWIDTH 16 0
BBX 15 15 0 2
BITMAP
02400140
0FD007D0
3FF41FF4
7FFD7FFC
1FFFFFF4
07FFFFD0
01FFFF40
007FFC00
00FFFE00
03FFFF80
0BFEFFD0
2FF82FF4
7FE00BFC
1F4002E0
09000080
ENDCHAR
STARTCHAR Oslash
ENCODING 216
SWIDTH 808 0
DWIDTH 23 0
BBX 22 23 0 -3
BITMAP
00000002D000
00000003F800
0000054BFD00
0006FFFFF800
00BFFFFFF400
02FFF9BFFD00
0BFF40FFFF40
2FFD01FFFFC0
3FF403FEBFE0
7FF007FC7FF0
7FE00FF47FF0
7FE02FE03FF0
7FE03FC07FF0
7FF0BF407FE0
3FF5FE00BFD0
1FFEFC01FFC0
0BFFF407FF40
02FFF5AFFD00
007FFFFFE400
003FFFFE4000
00BF15400000
00FD00000000
007800000000
ENDCHAR
STARTCHAR Ugrave
ENCODING 217
SWIDTH 725 0
DWIDTH 20 0
BBX 24 28 -2 -1
BITMAP
000002D00000
00001FE00000
00000FF00000
00000BF40000
000003F80000
000001F80000
000000900000
000000000000
000000055555
6AA95506FFFD
06FFFE406FD0
00BFE0001F80
00BFD0001F80
00BFD0001F80
00BFD0001F80
00BFD0000F80
00BFD0000F80
00FFD0000F80
00FFD0000F40
00FFD0000F40
00FFD0000F40
00BFD0000F40
00BFF0001F00
007FF4003E00
002FFE01FD00
000BFFFFF400
0002FFFFD000
00001AA50000
ENDCHAR
STARTCHAR Uacute
ENCODING 218
SWIDTH 725 0
DWIDTH 20 0
BBX 24 28 -2 -1
BITMAP
000000E40000
000001FE0000
000002FC0000
000003F80000
000007F00000
000006D00000
000000400000
000000000000
000000055555
6AA95506FFFD
06FFFE406FD0
00BFE0001F80
00BFD0001F80
00BFD0001F80
00BFD0001F80
00BFD0000F80
00BFD0000F80
00FFD0000F80
00FFD0000F40
00FFD0000F40
00FFD0000F40
00BFD0000F40
00BFF0001F00
007FF4003E00
002FFE01FD00
000BFFFFF400
0002FFFFD000
00001AA50000
ENDCHAR
STARTCHAR Ucircumflex
ENCODING 219
SWIDTH 725 0
DWIDTH 20 0
BBX 24 28 -2 -1
BITMAP
000000900000
000002F00000
00000BF80000
00001FFE0000
00007FBF4000
0000FD0BD000
0000A0018000
000000000000
000000055555
6AA95506FFFD
06FFFE406FD0
00BFE0001F80
00BFD0001F80
00BFD0001F80
00BFD0001F80
00BFD0000F80
00BFD0000F80
00FFD0000F80
00FFD0000F40
00FFD0000F40
00FFD0000F40
00BFD0000F40
00BFF0001F00
007FF4003E00
002FFE01FD00
000BFFFFF400
0002FFFFD000
00001AA50000
ENDCHAR
STARTCHAR Udieresis
ENCODING 220
SWIDTH 725 0
DWIDTH 20 0
BBX 24 26 -2 -1
BITMAP
000005010000
00003F0FC000
00003F4FD000
00002E0B8000
000000000000
000000000000
000000055555
6AA95506FFFD
06FFFE406FD0
00BFE0001F80
00BFD0001F80
00BFD0001F80
00BFD0001F80
00BFD0000F80
00BFD0000F80
00FFD0000F80
00FFD0000F40
00FFD0000F40
00FFD0000F40
00BFD0000F40
00BFF0001F00
007FF4003E00
002FFE01FD00
000BFFFFF400
0002FFFFD000
00001AA50000
ENDCHAR
STARTCHAR Yacute
ENCODING 221
SWIDTH 848 0
DWIDTH 24 0
BBX 28 28 -3 -2
BITMAP
00000000B40000
00000000FF0000
00000001FD0000
00000002FC0000
00000003F40000
00000002E00000
00000000100000
00000050000000
6ABFFFD0000000
1BFFFE00155500
006FFE001BFFFE
0007FF4001FF90
0001FFD000B900
00007FF002E000
00001FF80B8000
00000BFE2F0000
000002FFFC0000
000000BFF40000
0000003FD00000
0000002FD00000
0000002FD00000
0000002FD00000
0000002FE00000
0000002FE00000
0000003FE00000
0000003FF40000
000006FFFF9000
00006FFFFFF900
ENDCHAR
STARTCHAR Thorn
ENCODING 222
SWIDTH 745 0
DWIDTH 21 0
BBX 23 19 -2 -1
BITMAP
6FEAAAA90000
07FFFFE40000
006FFD000000
000FF8000000
000FFFFFA400
000FFFFFFF80
000FF956BFF4
000FF4000BF8
000FF40002FC
000FF80003FC
000FF8001FF4
000FF96AFFD0
000FFFFFF900
000FFFA90000
000FFC000000
000FFC000000
007FFE400000
06FFFFF80000
2FAAAAAA4000
ENDCHAR
STARTCHAR germandbls
ENCODING 223
SWIDTH 986 0
DWIDTH 28 0
BBX 30 37 -2 -11
BITMAP
000001BE90000000
00001FFFF8000000
00007FEAFF000000
0000FF003F800000
0002FD000FD00000
0003F8000BF00000
0007F40007F00000
000BF40007F40000
000BF40007F40000
000BF40007F40000
000BF4000BF00000
000BF4001FE00000
0BFFF8003FC00000
0BFFF800BF800000
055BF801FF000000
0007FC02FE000000
0007FC03FD000000
0003FD03FD000000
0003FD03FE000000
0002FD02FFD00000
0002FE00FFFD0000
0002FE007FFFE400
0001FE001BFFFE40
0001FF0141FFFFC0
0000FF01C01BFFE0
0000FF01F000BFF0
0000FF41FC002FE0
0000FF41FF907FD0
0000BF41FFFFFF80
0000BF42C6FFF900
2F40BF4240154000
7F80BF4100000000
7F80FF0000000000
3F41FE0000000000
2FD7FC0000000000
0BFFF40000000000
01FF800000000000
ENDCHAR
STARTCHAR agrave
ENCODING 224
SWIDTH 572 0
DWIDTH 16 0
BBX 18 25 0 -1
BITMAP
00002D0000
0001FE0000
0000FF0000
0000BF4000
00003F8000
00001F8000
0000090000
0000000000
0005540000
01BFFF4000
07FABFD000
1FD01FF000
2FE00BF400
2FE007F800
1FD007F800
015547F800
07FFFFF800
2FFAAFF400
7FD00FF400
7FC00FF400
7FD01FF000
2FFFFFF000
06FFFFF400
00152FFF40
00001A9550
ENDCHAR
STARTCHAR aacute
ENCODING 225
SWIDTH 572 0
DWIDTH 16 0
BBX 18 25 0 -1
BITMAP
00002D0000
00003F8000
00007F4000
0000BE0000
0000FD0000
0000B80000
0000000000
0000000000
0005540000
01BFFF4000
07FABFD000
1FD01FF000
2FE00BF400
2FE007F800
1FD007F800
015547F800
07FFFFF800
2FFAAFF400
7FD00FF400
7FC00FF400
7FD01FF000
2FFFFFF000
06FFFFF400
00152FFF40
00001A9550
ENDCHAR
STARTCHAR acircumflex
ENCODING 226
SWIDTH 572 0
DWIDTH 16 0
BBX 18 26 0 -1
BITMAP
0000600000
0001F80000
0003FD0000
000BFF4000
002FEFC000
007E07E000
0024009000
0000000000
0000000000
0005540000
01BFFF4000
07FABFD000
1FD01FF000
2FE00BF400
2FE007F800
1FD007F800
015547F800
07FFFFF800
2FFAAFF400
7FD00FF400
7FC00FF400
7FD01FF000
2FFFFFF000
06FFFFF400
00152FFF40
00001A9550
ENDCHAR
STARTCHAR atilde
ENCODING 227
SWIDTH 572 0
DWIDTH 16 0
BBX 18 24 0 -1
BITMAP
0005401000
002FF9E000
003FFFE000
003EFFE000
00201A8000
0000000000
0000000000
0005540000
01BFFF4000
07FABFD000
1FD01FF000
2FE00BF400
2FE007F800
1FD007F800
015547F800
07FFFFF800
2FFAAFF400
7FD00FF400
7FC00FF400
7FD01FF000
2FFFFFF000
06FFFFF400
00152FFF40
00001A9550
ENDCHAR
STARTCHAR adieresis
ENCODING 228
SWIDTH 572 0
DWIDTH 16 0
BBX 18 23 0 -1
BITMAP
0014050000
007E1F8000
00BE2F8000
002D0B4000
0000000000
0000000000
0005540000
01BFFF4000
07FABFD000
1FD01FF000
2FE00BF400
2FE007F800
1FD007F800
015547F800
07FFFFF800
2FFAAFF400
7FD00FF400
7FC00FF400
7FD01FF000
2FFFFFF000
06FFFFF400
00152FFF40
00001A9550
ENDCHAR
STARTCHAR aring
ENCODING 229
SWIDTH 572 0
DWIDTH 16 0
BBX 18 22 0 -1
BITMAP
0001B80000
0007FE0000
000B4F0000
000B4B0000
0007FE0000
0006FC0000
01BFFF4000
07FABFD000
1FD01FF000
2FE00BF400
2FE007F800
1FD007F800
015547F800
07FFFFF800
2FFAAFF400
7FD00FF400
7FC00FF400
7FD01FF000
2FFFFFF000
06FFFFF400
00152FFF40
00001A9550
ENDCHAR
STARTCHAR ae
ENCODING 230
SWIDTH 1022 0
DWIDTH 29 0
BBX 29 17 0 -1
BITMAP
0016500000000000
02FFFE0005640000
0FFABF807FFF8000
2F802FD2FFFFF400
3FC01FFBF907FC00
3FC00FFFF001FE00
2F800FFFD000FF00
05554FFFEAAAFF40
1BFFFFFFFFFFFF40
7FEABFFFE9555500
BF801FFFE0000000
FF402FEFF8001800
FF802FE7FFAAF400
7FFFFFD1BFFF8000
1BFFFFE01AA50000
00157FFE00000000
00002A5540000000
ENDCHAR
STARTCHAR ccedilla
ENCODING 231
SWIDTH 589 0
DWIDTH 17 0
BBX 16 24 1 -10
BITMAP
001AE900
01FFFF80
0BFEBFF0
2FF40BF8
7FD00FFC
BFC00BF8
FF8002E4
FF800000
FF800000
FF800009
BFD0001C
7FF00078
2FFE56F4
0BFFFFE0
02FFFF40
001FA400
000F4000
002FD000
007FF400
0000B800
00147C00
003EF800
007FF400
000A8000
ENDCHAR
STARTCHAR egrave
ENCODING 232
SWIDTH 593 0
DWIDTH 17 0
BBX 16 24 1 -2
BITMAP
0001B000
000BF400
0007F800
0002FC00
0001FD00
0000BD00
00002000
00000000
00000000
006BE400
02FFFF40
0FFFFFD0
3FE01FF0
7FC00BF8
FF4003FC
FF9557FD
FFFFFFFD
FFFFFFE9
FF400000
7FC00014
3FE401A0
0FFFFFC0
02FFFE00
001A9000
ENDCHAR
STARTCHAR eacute
ENCODING 233
SWIDTH 593 0
DWIDTH 17 0
BBX 16 23 1 -2
BITMAP
0000E400
0001FD00
0002FC00
0003F400
0007F000
0007D000
00004000
00000000
006BE400
02FFFF40
0FFFFFD0
3FE01FF0
7FC00BF8
FF4003FC
FF9557FD
FFFFFFFD
FFFFFFE9
FF400000
7FC00014
3FE401A0
0FFFFFC0
02FFFE00
001A9000
ENDCHAR
STARTCHAR ecircumflex
ENCODING 234
SWIDTH 593 0
DWIDTH 17 0
BBX 16 24 1 -2
BITMAP
00018000
0007E000
000FF400
002FFD00
00BFBF00
01F81F80
00900240
00000000
00000000
006BE400
02FFFF40
0FFFFFD0
3FE01FF0
7FC00BF8
FF4003FC
FF9557FD
FFFFFFFD
FFFFFFE9
FF400000
7FC00014
3FE401A0
0FFFFFC0
02FFFE00
001A9000
ENDCHAR
STARTCHAR edieresis
ENCODING 235
SWIDTH 593 0
DWIDTH 17 0
BBX 16 21 1 -2
BITMAP
00140500
00BD2F40
00BE2F80
00781E00
00000000
00000000
006BE400
02FFFF40
0FFFFFD0
3FE01FF0
7FC00BF8
FF4003FC
FF9557FD
FFFFFFFD
FFFFFFE9
FF400000
7FC00014
3FE401A0
0FFFFFC0
02FFFE00
001A9000
ENDCHAR
STARTCHAR igrave
ENCODING 236
SWIDTH 393 0
DWIDTH 11 0
BBX 13 24 -1 0
BITMAP
001A0000
00FF4000
00BF8000
003FC000
001FD000
000FD000
00050000
00000000
00000000
6AAAA000
0BFFF000
00BFF000
002FF000
002FF000
002FE000
001FE000
001FE000
001FE000
001FD000
001FD000
001FD000
006FE000
02FFFD00
1BFFFF80
ENDCHAR
STARTCHAR iacute
ENCODING 237
SWIDTH 393 0
DWIDTH 11 0
BBX 13 24 -1 0
BITMAP
0002D000
0003FC00
0007F400
000BF000
000FD000
000BC000
00004000
00000000
00000000
6AAAA000
0BFFF000
00BFF000
002FF000
002FF000
002FE000
001FE000
001FE000
001FE000
001FD000
001FD000
001FD000
006FE000
02FFFD00
1BFFFF80
ENDCHAR
STARTCHAR icircumflex
ENCODING 238
SWIDTH 393 0
DWIDTH 11 0
BBX 13 24 -1 0
BITMAP
00060000
000F8000
002FE000
00BFF400
01FEFD00
07E07F00
02400900
00000000
00000000
6AAAA000
0BFFF000
00BFF000
002FF000
002FF000
002FE000
001FE000
001FE000
001FE000
001FD000
001FD000
001FD000
006FE000
02FFFD00
1BFFFF80
ENDCHAR
STARTCHAR idieresis
ENCODING 239
SWIDTH 393 0
DWIDTH 11 0
BBX 13 21 -1 0
BITMAP
00501400
00FC7F00
01FC7F00
00B42D00
00000000
00000000
6AAAA000
0BFFF000
00BFF000
002FF000
002FF000
002FE000
001FE000
001FE000
001FE000
001FD000
001FD000
001FD000
006FE000
02FFFD00
1BFFFF80
ENDCHAR
STARTCHAR eth
ENCODING 240
SWIDTH 672 0
DWIDTH 19 0
BBX 20 26 -1 -3
BITMAP
0050000000
001E0001E0
0003E00BF4
0000BD7FE0
00002FFF40
00002FF800
0001FFF800
000BFEFE00
001FF8BF80
0007D03FD0
0001001FF0
0000000FF4
0006BFAFFC
01BFFFFFFD
07FF95BFFD
1FF8001FFE
2FF00007FE
3FD00002FE
7FD00002FE
7FD00002FE
3FE00003FD
2FF00007FC
0FF8001FF4
02FFAAFFD0
007FFFFE00
0005AA5000
ENDCHAR
STARTCHAR ntilde
ENCODING 241
SWIDTH 643 0
DWIDTH 18 0
BBX 22 21 -2 1
BITMAP
000015004000
0000FFEB4000
0000FFFF4000
0000FBFF4000
000080AA0000
000000000000
000010000000
016BF1AA4000
BFFFFFFFE000
16FFFFFFF800
002FF95FFC00
002FE003FD00
001FE002FD00
001FE001FD00
001FD001FD00
000FD001FC00
000FD001FC00
007FF801F800
06AAAA06F900
000000BFFF90
000001555550
ENDCHAR
STARTCHAR ograve
ENCODING 242
SWIDTH 705 0
DWIDTH 20 0
BBX 20 23 0 -1
BITMAP
00001E0000
0000FF0000
0000BF4000
00007F8000
00002FC000
00000FC000
0000050000
0000000000
0000550000
006FFFF900
07FFFFFF80
1FFD007FF0
3FF0000FF8
7FD00007FC
BFC00003FD
BF800003FD
BFC00007FD
7FD0000BFC
2FF0001FF8
0FFD01BFE0
02FFFFFF40
006FFFE400
0000140000
ENDCHAR
STARTCHAR oacute
ENCODING 243
SWIDTH 705 0
DWIDTH 20 0
BBX 20 23 0 -1
BITMAP
00001E4000
00002FD000
00003F8000
00007F4000
0000BE0000
00007D0000
0000040000
0000000000
0000550000
006FFFF900
07FFFFFF80
1FFD007FF0
3FF0000FF8
7FD00007FC
BFC00003FD
BF800003FD
BFC00007FD
7FD0000BFC
2FF0001FF8
0FFD01BFE0
02FFFFFF40
006FFFE400
0000140000
ENDCHAR
STARTCHAR ocircumflex
ENCODING 244
SWIDTH 705 0
DWIDTH 20 0
BBX 20 23 0 -1
BITMAP
0000180000
00007E0000
0000FF8000
0002FFD000
000BFBF400
001F81FC00
0009002400
0000000000
0000550000
006FFFF900
07FFFFFF80
1FFD007FF0
3FF0000FF8
7FD00007FC
BFC00003FD
BF800003FD
BFC00007FD
7FD0000BFC
2FF0001FF8
0FFD01BFE0
02FFFFFF40
006FFFE400
0000140000
ENDCHAR
STARTCHAR otilde
ENCODING 245
SWIDTH 705 0
DWIDTH 20 0
BBX 20 22 0 -1
BITMAP
0001500400
000BFE7800
000BFFF800
000BBFF800
000906A400
0000000000
0000000000
0000550000
006FFFF900
07FFFFFF80
1FFD007FF0
3FF0000FF8
7FD00007FC
BFC00003FD
BF800003FD
BFC00007FD
7FD0000BFC
2FF0001FF8
0FFD01BFE0
02FFFFFF40
006FFFE400
0000140000
ENDCHAR
STARTCHAR odieresis
ENCODING 246
SWIDTH 705 0
DWIDTH 20 0
BBX 20 21 0 -1
BITMAP
0001405000
000BD2F400
000BE2F800
0007C1E000
0000000000
0000000000
0000550000
006FFFF900
07FFFFFF80
1FFD007FF0
3FF0000FF8
7FD00007FC
BFC00003FD
BF800003FD
BFC00007FD
7FD0000BFC
2FF0001FF8
0FFD01BFE0
02FFFFFF40
006FFFE400
0000140000
ENDCHAR
STARTCHAR divide
ENCODING 247
SWIDTH 504 0
DWIDTH 14 0
BBX 14 17 0 -1
BITMAP
001B9000
007FF000
007FF400
003FF000
000A8000
00000000
BFFAAA50
BFFFFFE0
BFFFFFE0
BFFFFAA0
00000000
00054000
003FD000
00BFF000
00BFF000
002FD000
00010000
ENDCHAR
STARTCHAR oslash
ENCODING 248
SWIDTH 705 0
DWIDTH 20 0
BBX 20 21 0 -4
BITMAP
0000000900
0000002F40
0000007FC0
000055FF80
006FFFFF00
07FFFFFF80
1FFD0BFFE0
3FF01FFFF8
7FD02FD7FC
BFC07F87FD
BF80FF43FD
BFC1FE07FD
7FD3FC0BFC
2FFBF41FF8
0BFFE1BFE0
02FFFFFF40
007FFFE400
00FE140000
01FD000000
01B8000000
0010000000
ENDCHAR
STARTCHAR ugrave
ENCODING 249
SWIDTH 614 0
DWIDTH 17 0
BBX 21 24 -2 -2
BITMAP
00002D000000
0001FE000000
0000FF000000
00007F400000
00003F800000
00001F800000
000009000000
000000000000
AAAA45555400
1FFF46FFF800
02FF006FF800
01FF000BF400
01FF000BF400
01FE000BF000
01FE000BF000
01FE000FE000
01FE000FE000
00FE000FD000
00FF001FD000
00BFD5BFD000
003FFFFFE000
000BFFDFFE40
0000550FE500
000000040000
ENDCHAR
STARTCHAR uacute
ENCODING 250
SWIDTH 614 0
DWIDTH 17 0
BBX 21 24 -2 -2
BITMAP
000007800000
00000BF40000
00000FE00000
00001FD00000
00002F800000
00002F000000
000001000000
000000000000
AAAA45555400
1FFF46FFF800
02FF006FF800
01FF000BF400
01FF000BF400
01FE000BF000
01FE000BF000
01FE000FE000
01FE000FE000
00FE000FD000
00FF001FD000
00BFD5BFD000
003FFFFFE000
000BFFDFFE40
0000550FE500
000000040000
ENDCHAR
STARTCHAR ucircumflex
ENCODING 251
SWIDTH 614 0
DWIDTH 17 0
BBX 21 25 -2 -2
BITMAP
00000A000000
00002F400000
00007FD00000
0001FFF00000
0003FBF80000
000BD0BE0000
000600190000
000000000000
000000000000
AAAA45555400
1FFF46FFF800
02FF006FF800
01FF000BF400
01FF000BF400
01FE000BF000
01FE000BF000
01FE000FE000
01FE000FE000
00FE000FD000
00FF001FD000
00BFD5BFD000
003FFFFFE000
000BFFDFFE40
0000550FE500
000000040000
ENDCHAR
STARTCHAR udieresis
ENCODING 252
SWIDTH 614 0
DWIDTH 17 0
BBX 21 22 -2 -2
BITMAP
000140500000
0007E1F80000
000BE2F80000
0002D0B40000
000000000000
000000000000
AAAA45555400
1FFF46FFF800
02FF006FF800
01FF000BF400
01FF000BF400
01FE000BF000
01FE000BF000
01FE000FE000
01FE000FE000
00FE000FD000
00FF001FD000
00BFD5BFD000
003FFFFFE000
000BFFDFFE40
0000550FE500
000000040000
ENDCHAR
STARTCHAR yacute
ENCODING 253
SWIDTH 655 0
DWIDTH 18 0
BBX 19 36 -1 -13
BITMAP
00001E0000
00002FD000
00003F8000
00007F4000
0000BE0000
0000BC0000
0000040000
0000000000
A400000000
3F902A9500
1FFE07FFF4
07FF80BFF4
03FF401FF4
07FF001FF4
0BFE001FF4
0BFD001FF4
0FFC001FF4
0FFC001FF4
0BFD001FF0
07FF956FF0
02FFFFFFF0
00BFFFFFF0
0005542FF0
0000002FF0
0000002FF0
0000002FF0
0000002FE0
0040002FE0
07F0003FE0
0BF4003FD0
0FF4007FC0
0BE000FF80
07F406FF00
01FFFFFC00
006FFFE000
0005A50000
ENDCHAR
STARTCHAR thorn
ENCODING 254
SWIDTH 734 0
DWIDTH 21 0
BBX 23 32 -2 -12
BITMAP
555554000000
6FFFF8000000
02FFF8000000
002FF8000000
000FF8000000
000FF8000000
000FF8000000
000FF8000000
000FF8000000
000FF8000000
000FF8000000
000FFEFFE400
000BFFFFFF40
000BFE55BFD0
000BF8001FF0
000BF8000BF8
000BF80007F8
000BF80007F8
000BF8000BF8
000BF8000FF4
000BF9007FF0
000BFFEBFFC0
000BFFFFFE00
000BF96A9000
0007F8000000
0007F8000000
0007F8000000
0007F8000000
0007FC000000
002FFF900000
06FFFFF90000
1A5555000000
ENDCHAR
STARTCHAR ydieresis
ENCODING 255
SWIDTH 655 0
DWIDTH 18 0
BBX 19 34 -1 -13
BITMAP
0005014000
001F87E000
002F8BE000
000B42D000
0000000000
0000000000
A400000000
3F902A9500
1FFE07FFF4
07FF80BFF4
03FF401FF4
07FF001FF4
0BFE001FF4
0BFD001FF4
0FFC001FF4
0FFC001FF4
0BFD001FF0
07FF956FF0
02FFFFFFF0
00BFFFFFF0
0005542FF0
0000002FF0
0000002FF0
0000002FF0
0000002FE0
0040002FE0
07F0003FE0
0BF4003FD0
0FF4007FC0
0BE000FF80
07F406FF00
01FFFFFC00
006FFFE000
0005A50000
ENDCHAR
STARTCHAR dotlessi
ENCODING 305
SWIDTH 393 0
DWIDTH 11 0
BBX 13 15 -1 0
BITMAP
6AAAA000
0BFFF000
00BFF000
002FF000
002FF000
002FE000
001FE000
001FE000
001FE000
001FD000
001FD000
001FD000
006FE000
02FFFD00
1BFFFF80
ENDCHAR
STARTCHAR Lslash
ENCODING 321
SWIDTH 713 0
DWIDTH 20 0
BBX 22 22 -2 0
BITMAP
6FFFFFFF8000
06FFFFF40000
001FFF400000
000BFE000000
000BFE000000
000BFE000000
000BFE680000
0007FFFC0000
0007FFFE0000
000BFFFE0000
007FFFE00010
07FFFE000020
07FFFD0000A0
03FBFD0000E0
0143FD0001E0
0003FD0002E0
0003FD0003E0
0003FD0007E0
0003FE555FE0
002FFFFFFFE0
02FFFFFFFFE0
1AAA55540000
ENDCHAR
STARTCHAR lslash
ENCODING 322
SWIDTH 365 0
DWIDTH 10 0
BBX 15 26 -3 -2
BITMAP
6FFFFC00
06FFFC00
001FFC00
000FFC00
000FFC00
000FF800
000FF800
000FF810
000BF9F4
000BFFF8
000BFFF8
01BFFF80
0BFFF800
0FFFF400
0BFFF400
0787F400
0007F400
0007F400
0007F400
0007F400
0007F400
0007F400
0007F400
000BF900
007FFF80
02FFFAA0
ENDCHAR
STARTCHAR OE
ENCODING 338
SWIDTH 1195 0
DWIDTH 33 0
BBX 33 21 0 -1
BITMAP
000000000556ABFF40
000006AFFFFFFFFF40
0000016FFFFFA97F40
00000001FFE0002F40
0016AA40BFE0000F40
01BFFFF8BFE0040B00
0BFF9BFEBFE0180700
1FF800BFFFE0280300
3FE0003FFFE0780100
7FC0001FFFE0B80000
BF80001FFFFBF80000
BF80000FFFFFF80100
BF80001FFFFFF80200
7FC0001FFFE0F80600
3FD0003FFFE0780A00
1FF400BFFFD0280E00
0BFE5BFE7FD0041E00
01FFFFF43FD0002E00
001AAA41BFFAAABE00
0000006FFFFFFFFE00
000006AAAAAAAAA900
ENDCHAR
STARTCHAR oe
ENCODING 339
SWIDTH 1087 0
DWIDTH 30 0
BBX 31 15 0 -2
BITMAP
001AA94000150000
02FFFFE40BFFE400
0BFE5BFE7FFFFE00
2FE001FFFF96FF80
7FC0007FFD007FD0
BF40002FFC002FE0
BF40002FF8001FF0
BF40002FFFFFFFF0
7F80003FFFFFFFF4
3FD0007FF9550000
1FF402FFFC000040
07FFFFFBFF400680
006FFF91FFFAFE00
000150002FFFF800
0000000001AA4000
ENDCHAR
STARTCHAR Scaron
ENCODING 352
SWIDTH 661 0
DWIDTH 19 0
BBX 18 31 0 -3
BITMAP
002800A000
003F47F000
001FEFD000
000BFF4000
0002FE0000
0000FC0000
0000600000
0000000000
0000000010
0001500020
01BFFF90A0
0BFFFFFAE0
2FF406FFD0
7FC0002FD0
BFC0000BD0
BFE40001C0
BFFF900080
3FFFFF9000
1FFFFFF800
02FFFFFF40
001BFFFFD0
04005FFFF0
080001FFF0
0D00007FF0
0F40003FF0
1FE000BFD0
1FFEABFF80
1CBFFFFD00
2806AA5000
2000000000
1000000000
ENDCHAR
STARTCHAR scaron
ENCODING 353
SWIDTH 533 0
DWIDTH 15 0
BBX 15 26 0 -1
BITMAP
01900640
02F82F80
00BFFE00
003FFC00
001FF400
0007D000
00018000
00000000
00154010
02FFF430
1FFFFEB0
3F906FF0
7F4007F0
7FC001F0
7FF90060
2FFFE420
0FFFFE40
02FFFFD0
202FFFF4
2801BFF8
3E000BFC
3F8007F8
3FF96FF4
7AFFFFD0
606BE900
40000000
ENDCHAR
STARTCHAR Ydieresis
ENCODING 376
SWIDTH 848 0
DWIDTH 24 0
BBX 28 26 -3 -2
BITMAP
00000050140000
000001F87E0000
000001FC7F0000
000000B42D0000
00000000000000
00000050000000
6ABFFFD0000000
1BFFFE00155500
006FFE001BFFFE
0007FF4001FF90
0001FFD000B900
00007FF002E000
00001FF80B8000
00000BFE2F0000
000002FFFC0000
000000BFF40000
0000003FD00000
0000002FD00000
0000002FD00000
0000002FD00000
0000002FE00000
0000002FE00000
0000003FE00000
0000003FF40000
000006FFFF9000
00006FFFFFF900
ENDCHAR
STARTCHAR Zcaron
ENCODING 381
SWIDTH 685 0
DWIDTH 19 0
BBX 20 26 0 0
BITMAP
0009002800
001F91F800
0007FBF000
0002FFD000
0000FF4000
00003E0000
0000180000
0000000000
0000000000
6AAAFFFFFE
7FFFFFFFF8
3FEAAAFFF0
2F0002FFD0
1E000BFF80
1E001FFE00
0D007FFC00
0901FFF400
0403FFD008
000BFF8018
002FFE0038
00BFFC0078
01FFF400F8
07FFE002F8
1FFFFFFFF4
3FFFFFFFF4
555556AAA4
ENDCHAR
STARTCHAR zcaron
ENCODING 382
SWIDTH 549 0
DWIDTH 15 0
BBX 17 25 0 -1
BITMAP
0090028000
01F91FC000
007FBF4000
002FFD0000
000BF80000
0003E00000
0001800000
0000000000
0000000000
15555AAA40
7FFFFFFE00
7FFFFFFC00
3E003FF400
3D00BFD000
2D02FF8000
1C07FF0000
181FFD0400
043FF41800
00BFE02800
02FFC03800
07FF40B800
1FFF95F800
3FFFFFFC00
6ABFFFFC00
0000055400
ENDCHAR
STARTCHAR circumflex
ENCODING 710
SWIDTH 714 0
DWIDTH 20 0
BBX 10 7 6 19
BITMAP
00A000
01F800
07FD00
0FFF40
2FEFC0
BE07E0
240090
ENDCHAR
STARTCHAR caron
ENCODING 711
SWIDTH 714 0
DWIDTH 20 0
BBX 10 7 6 19
BITMAP
640190
7E0BE0
2FFFC0
0BFF00
03FD00
01F800
006000
ENDCHAR
STARTCHAR breve
ENCODING 728
SWIDTH 715 0
DWIDTH 20 0
BBX 10 6 6 20
BITMAP
7401D0
3E5BD0
2FFF80
0FFF00
02FD00
005000
ENDCHAR
STARTCHAR dotaccent
ENCODING 729
SWIDTH 708 0
DWIDTH 20 0
BBX 4 4 8 23
BITMAP
14
BD
BE
78
ENDCHAR
STARTCHAR ring
ENCODING 730
SWIDTH 704 0
DWIDTH 20 0
BBX 6 6 8 20
BITMAP
2F40
BFD0
F1E0
F1E0
7FD0
1E40
ENDCHAR
STARTCHAR ogonek
ENCODING 731
SWIDTH 988 0
DWIDTH 28 0
BBX 10 8 9 -4
BITMAP
280000
BC0000
FC0000
FC0000
FF5590
BFFFD0
2FFE40
015000
ENDCHAR
STARTCHAR tilde
ENCODING 732
SWIDTH 707 0
DWIDTH 20 0
BBX 10 5 6 20
BITMAP
054050
7FE6D0
7FFFD0
7FFFD0
606A40
ENDCHAR
STARTCHAR hungarumlaut
ENCODING 733
SWIDTH 671 0
DWIDTH 19 0
BBX 11 7 5 20
BITMAP
0E4780
1FEBF4
2FDFE0
3F9FD0
7F2F80
6E2F00
040100
ENDCHAR
STARTCHAR endash
ENCODING 8211
SWIDTH 576 0
DWIDTH 16 0
BBX 14 5 1 8
BITMAP
15555680
7FFFFFD0
7FFFFFD0
7FFFFFD0
1556AA90
ENDCHAR
STARTCHAR emdash
ENCODING 8212
SWIDTH 993 0
DWIDTH 28 0
BBX 25 5 1 8
BITMAP
00000000555540
7FFFFFFFFFFFC0
7FFFFFFFFFFFC0
7FFFFFFFFFFFC0
6AAAAAAABFFFC0
ENDCHAR
STARTCHAR quoteleft
ENCODING 8216
SWIDTH 261 0
DWIDTH 7 0
BBX 7 8 0 12
BITMAP
02E0
07FC
0BF8
1FF4
2FF0
7FE0
6FD0
06C0
ENDCHAR
STARTCHAR quoteright
ENCODING 8217
SWIDTH 301 0
DWIDTH 8 0
BBX 7 8 1 12
BITMAP
0E40
1FF4
2FF4
3FE0
7FC0
BF80
FF00
1D00
ENDCHAR
STARTCHAR quotesinglbase
ENCODING 8218
SWIDTH 332 0
DWIDTH 9 0
BBX 7 8 1 -2
BITMAP
0E40
1FF4
2FF4
3FE0
7FC0
BF80
FF00
1D00
ENDCHAR
STARTCHAR quotedblleft
ENCODING 8220
SWIDTH 477 0
DWIDTH 13 0
BBX 13 8 0 12
BITMAP
02E02E00
07FC3FC0
0BF8BF80
1FF5FF40
2FF2FF00
7FE7FE00
6FD6FD00
06C06C00
ENDCHAR
STARTCHAR quotedblright
ENCODING 8221
SWIDTH 477 0
DWIDTH 13 0
BBX 13 8 0 12
BITMAP
0B40B400
0FF8FF80
1FF9FF80
2FF2FF00
3FE3FE00
7FC7FC00
BF4BF400
1B01B000
ENDCHAR
STARTCHAR quotedblbase
ENCODING 8222
SWIDTH 477 0
DWIDTH 13 0
BBX 13 8 0 -2
BITMAP
0B40B400
0FF8FF80
1FF9FF80
2FF2FF00
3FE3FE00
7FC7FC00
BF4BF400
1B01B000
ENDCHAR
STARTCHAR dagger
ENCODING 8224
SWIDTH 487 0
DWIDTH 14 0
BBX 13 33 0 -9
BITMAP
00155000
007FD000
007FD000
003FD000
003FD000
003FD000
003FD000
6ABFD500
7FFFFFC0
7FFFFFC0
7FFFFFC0
6ABFD540
003FC000
003FC000
003FC000
003FC000
003FC000
003FC000
003FC000
003FC000
002FC000
002FC000
002FC000
002FC000
002FC000
002FC000
002FC000
002F8000
002F8000
002F8000
002F8000
002F8000
00054000
ENDCHAR
STARTCHAR daggerdbl
ENCODING 8225
SWIDTH 497 0
DWIDTH 14 0
BBX 13 33 0 -9
BITMAP
00155000
007FD000
007FD000
003FD000
003FD000
003FD000
003FD000
6ABFD500
7FFFFFC0
7FFFFFC0
7FFFFFC0
6ABFD540
003FD000
003FC000
15BFEFC0
7FFFFFC0
7FFFFFC0
7FFFFFC0
017FD580
003FC000
003FC000
002FC000
002FC000
002FC000
002FC000
002FC000
002FC000
002F8000
002F8000
002F8000
002F8000
002F8000
00054000
ENDCHAR
STARTCHAR bullet
ENCODING 8226
SWIDTH 275 0
DWIDTH 8 0
BBX 8 8 0 7
BITMAP
0540
2FF4
7FFD
FFFE
FFFE
BFFD
7FFC
1FE0
ENDCHAR
STARTCHAR ellipsis
ENCODING 8230
SWIDTH 787 0
DWIDTH 22 0
BBX 22 6 0 -3
BITMAP
050005000500
2FD03FC07F80
BFF0BFE0FFE0
BFF0BFE0FFE0
7FD07FD07FD0
054005000500
ENDCHAR
STARTCHAR perthousand
ENCODING 8240
SWIDTH 888 0
DWIDTH 25 0
BBX 26 23 0 -1
BITMAP
00000090000000
059001FE000000
2FFD02FD000000
BFBF07FC000000
FC2F4BF4000000
FC2F4FF0000000
BD7F1FE0000000
7FFE2FC0000000
1BF47F80000000
0000BF40000000
0000FE00000000
0001FD00000000
0002FC00000000
0007F800000000
000BF005001400
000FE1FFD2FF40
001FD7FFFFFFD0
002F8BE1FF87F0
007F4BD1FF83F0
00BF0BE2FF87E0
00FD03FFFBFFD0
01FC01BF92FF40
01B80014001400
ENDCHAR
STARTCHAR guilsinglleft
ENCODING 8249
SWIDTH 234 0
DWIDTH 7 0
BBX 6 15 0 -1
BITMAP
0010
00B0
01F0
07E0
0FD0
2F80
7F40
BF00
7F40
2FC0
0BD0
03E0
01F0
00B0
0010
ENDCHAR
STARTCHAR guilsinglright
ENCODING 8250
SWIDTH 223 0
DWIDTH 6 0
BBX 7 15 0 -1
BITMAP
2000
7400
BC00
3E00
2F40
1FD0
0BF0
07F4
0FE0
1FC0
2F40
7E00
BC00
7400
1000
ENDCHAR
STARTCHAR fraction
ENCODING 8260
SWIDTH 600 0
DWIDTH 17 0
BBX 19 28 -1 -4
BITMAP
0000000400
0000000E40
0000002FE0
0000007FF4
000000BFF0
000001FFD0
000003FF80
00000BFF00
00000FFD00
00002FF800
00007FF400
0000BFE000
0001FFC000
0003FF4000
000BFE0000
000FFC0000
002FF40000
007FF00000
00FFD00000
01FF800000
03FF000000
0BFD000000
1FF8000000
2FF0000000
7FE0000000
7FC0000000
1B40000000
0100000000
ENDCHAR
STARTCHAR Euro
ENCODING 8364
SWIDTH 590 0
DWIDTH 17 0
BBX 18 18 -1 1
BITMAP
0000054000
0001BFF800
000BFFFF00
003FD07F80
00BF402FD0
01FE003FD0
56FD002FD0
BFFFFE0540
BFFFFF0000
57FD550000
57FE554000
BFFFFFC020
6AFFFFD0A0
00FF8002D0
00BFF55F80
002FFFFF00
0007FFF800
00006A9000
ENDCHAR
STARTCHAR trademark
ENCODING 8482
SWIDTH 624 0
DWIDTH 17 0
BBX 18 13 0 8
BITMAP
0600000000
0600000000
0E00000000
BE50000000
BFF0000000
2D00400000
2D1FFFAF40
3C02E7E780
3C02C2C280
3C11C2C280
3D62D2C7C0
2FD55BE550
0500000000
ENDCHAR
STARTCHAR minus
ENCODING 8722
SWIDTH 549 0
DWIDTH 15 0
BBX 15 5 0 7
BITMAP
BFFFAAA4
BFFFFFFC
BFFFFFFC
BFFFFFFC
AAAA5554
ENDCHAR
STARTCHAR fi
ENCODING 64257
SWIDTH 757 0
DWIDTH 21 0
BBX 24 38 -2 -11
BITMAP
000006BA4000
00002FFFF400
0000FFABFD00
0002FC01FF40
0007F800BF80
000BF400BFC0
000BF001FFD0
000FF001FFD0
000FF001FFC0
000FF0007F40
000FF4000000
000FF4000000
000FF4001540
0BFFFFFFFFD0
0BFFFFFFFFD0
055BFD55BFC0
0007FC00BFC0
0007FC007FC0
0003FD007FC0
0003FD007F80
0003FD007F80
0002FE003F80
0002FE003F80
0002FE003F80
0001FF00BF80
0001FF07FFF4
0001FF6FFFFE
0000FF400000
0000FF400000
0000BF400000
0000BF400000
2F40BF400000
7F80BF400000
7F80FF000000
3F41FE000000
2FD7FC000000
0BFFF4000000
01FF80000000
ENDCHAR
STARTCHAR fl
ENCODING 64258
SWIDTH 776 0
DWIDTH 22 0
BBX 25 38 -2 -11
BITMAP
000006FE400000
00002FFFF40000
0000FF5BFD0000
0002FC01FF0000
0007F400FF8000
000BF400BFC000
000BF0007FD000
000FF0007FD000
000FF0007FD000
000FF0007FE000
000FF4003FE000
000FF4003FD000
000FF4003FD000
0BFFFFFD3FD000
0BFFFFFD3FD000
055BFD543FD000
0007FC003FD000
0007FC002FD000
0003FD002FD000
0003FD002FD000
0003FD002FC000
0002FE002FC000
0002FE002FC000
0002FE002FC000
0001FF002FC000
0001FF001FC000
0001FF006FE000
0000FF42FFFD00
0000FF5FFFEA40
0000BF40000000
0000BF40000000
2F40BF40000000
7F80BF40000000
7F80FF00000000
3F41FE00000000
2FD7FC00000000
0BFFF400000000
01FF8000000000
ENDCHAR
STARTCHAR .notdef
ENCODING -1
SWIDTH 320 0
DWIDTH 9 0
BBX 1 1 0 0
BITMAP
00
ENDCHAR
ENDFONT
